<?xml version="1.0" encoding="us-ascii" standalone="no"?><svg xmlns="http://www.w3.org/2000/svg" xmlns:xlink="http://www.w3.org/1999/xlink" contentStyleType="text/css" height="1063px" preserveAspectRatio="none" style="width:1989px;height:1063px;background:#FFFFFF;" version="1.1" viewBox="0 0 1989 1063" width="1989px" zoomAndPan="magnify"><defs/><g><!--class AcademicYearsRepository--><g id="elem_AcademicYearsRepository"><rect codeLine="3" fill="#F1F1F1" height="136.0469" id="AcademicYearsRepository" rx="2.5" ry="2.5" style="stroke:#181818;stroke-width:0.5;" width="198" x="13" y="902.5"/><ellipse cx="28" cy="918.5" fill="#ADD1B2" rx="11" ry="11" style="stroke:#181818;stroke-width:1.0;"/><path d="M30.7656,914.375 Q30.9219,914.1563 31.1094,914.0469 Q31.2969,913.9375 31.5156,913.9375 Q31.8906,913.9375 32.125,914.2031 Q32.3594,914.4531 32.3594,915.0625 L32.3594,916.5156 Q32.3594,917.125 32.125,917.3906 Q31.8906,917.6563 31.5156,917.6563 Q31.1719,917.6563 30.9688,917.4531 Q30.7656,917.2656 30.6563,916.75 Q30.6094,916.3906 30.4219,916.2031 Q30.0938,915.8281 29.4844,915.6094 Q28.875,915.3906 28.25,915.3906 Q27.4844,915.3906 26.8438,915.7188 Q26.2188,916.0469 25.7188,916.7969 Q25.2344,917.5469 25.2344,918.5781 L25.2344,919.6719 Q25.2344,920.9063 26.125,921.7344 Q27.0156,922.5469 28.6094,922.5469 Q29.5469,922.5469 30.2031,922.2969 Q30.5938,922.1406 31.0156,921.7031 Q31.2813,921.4375 31.4219,921.3594 Q31.5781,921.2813 31.7813,921.2813 Q32.1094,921.2813 32.3594,921.5469 Q32.625,921.7969 32.625,922.1406 Q32.625,922.4844 32.2813,922.8906 Q31.7813,923.4688 30.9844,923.7969 Q29.9063,924.25 28.6094,924.25 Q27.0938,924.25 25.8906,923.625 Q24.9063,923.125 24.2188,922.0625 Q23.5313,920.9844 23.5313,919.7031 L23.5313,918.5469 Q23.5313,917.2188 24.1406,916.0781 Q24.7656,914.9219 25.8594,914.3125 Q26.9531,913.6875 28.1875,913.6875 Q28.9219,913.6875 29.5625,913.8594 Q30.2188,914.0156 30.7656,914.375 Z " fill="#000000"/><text fill="#000000" font-family="sans-serif" font-size="14" lengthAdjust="spacing" textLength="166" x="42" y="924.2285">AcademicYearsRepository</text><line style="stroke:#181818;stroke-width:0.5;" x1="14" x2="210" y1="934.5" y2="934.5"/><line style="stroke:#181818;stroke-width:0.5;" x1="14" x2="210" y1="942.5" y2="942.5"/><text fill="#000000" font-family="sans-serif" font-size="14" lengthAdjust="spacing" textLength="86" x="19" y="961.0332">create_year()</text><text fill="#000000" font-family="sans-serif" font-size="14" lengthAdjust="spacing" textLength="95" x="19" y="978.6426">get_all_years()</text><text fill="#000000" font-family="sans-serif" font-size="14" lengthAdjust="spacing" textLength="108" x="19" y="996.252">get_year_by_id()</text><text fill="#000000" font-family="sans-serif" font-size="14" lengthAdjust="spacing" textLength="90" x="19" y="1013.8613">update_year()</text><text fill="#000000" font-family="sans-serif" font-size="14" lengthAdjust="spacing" textLength="85" x="19" y="1031.4707">delete_year()</text></g><!--class CollegesRepository--><g id="elem_CollegesRepository"><rect codeLine="12" fill="#F1F1F1" height="136.0469" id="CollegesRepository" rx="2.5" ry="2.5" style="stroke:#181818;stroke-width:0.5;" width="155" x="258.5" y="653"/><ellipse cx="273.5" cy="669" fill="#ADD1B2" rx="11" ry="11" style="stroke:#181818;stroke-width:1.0;"/><path d="M276.2656,664.875 Q276.4219,664.6563 276.6094,664.5469 Q276.7969,664.4375 277.0156,664.4375 Q277.3906,664.4375 277.625,664.7031 Q277.8594,664.9531 277.8594,665.5625 L277.8594,667.0156 Q277.8594,667.625 277.625,667.8906 Q277.3906,668.1563 277.0156,668.1563 Q276.6719,668.1563 276.4688,667.9531 Q276.2656,667.7656 276.1563,667.25 Q276.1094,666.8906 275.9219,666.7031 Q275.5938,666.3281 274.9844,666.1094 Q274.375,665.8906 273.75,665.8906 Q272.9844,665.8906 272.3438,666.2188 Q271.7188,666.5469 271.2188,667.2969 Q270.7344,668.0469 270.7344,669.0781 L270.7344,670.1719 Q270.7344,671.4063 271.625,672.2344 Q272.5156,673.0469 274.1094,673.0469 Q275.0469,673.0469 275.7031,672.7969 Q276.0938,672.6406 276.5156,672.2031 Q276.7813,671.9375 276.9219,671.8594 Q277.0781,671.7813 277.2813,671.7813 Q277.6094,671.7813 277.8594,672.0469 Q278.125,672.2969 278.125,672.6406 Q278.125,672.9844 277.7813,673.3906 Q277.2813,673.9688 276.4844,674.2969 Q275.4063,674.75 274.1094,674.75 Q272.5938,674.75 271.3906,674.125 Q270.4063,673.625 269.7188,672.5625 Q269.0313,671.4844 269.0313,670.2031 L269.0313,669.0469 Q269.0313,667.7188 269.6406,666.5781 Q270.2656,665.4219 271.3594,664.8125 Q272.4531,664.1875 273.6875,664.1875 Q274.4219,664.1875 275.0625,664.3594 Q275.7188,664.5156 276.2656,664.875 Z " fill="#000000"/><text fill="#000000" font-family="sans-serif" font-size="14" lengthAdjust="spacing" textLength="123" x="287.5" y="674.7285">CollegesRepository</text><line style="stroke:#181818;stroke-width:0.5;" x1="259.5" x2="412.5" y1="685" y2="685"/><line style="stroke:#181818;stroke-width:0.5;" x1="259.5" x2="412.5" y1="693" y2="693"/><text fill="#000000" font-family="sans-serif" font-size="14" lengthAdjust="spacing" textLength="103" x="264.5" y="711.5332">create_college()</text><text fill="#000000" font-family="sans-serif" font-size="14" lengthAdjust="spacing" textLength="83" x="264.5" y="729.1426">get_college()</text><text fill="#000000" font-family="sans-serif" font-size="14" lengthAdjust="spacing" textLength="112" x="264.5" y="746.752">get_all_colleges()</text><text fill="#000000" font-family="sans-serif" font-size="14" lengthAdjust="spacing" textLength="107" x="264.5" y="764.3613">update_college()</text><text fill="#000000" font-family="sans-serif" font-size="14" lengthAdjust="spacing" textLength="102" x="264.5" y="781.9707">delete_college()</text></g><!--class CoursesRepository--><g id="elem_CoursesRepository"><rect codeLine="21" fill="#F1F1F1" height="171.2656" id="CoursesRepository" rx="2.5" ry="2.5" style="stroke:#181818;stroke-width:0.5;" width="189" x="448.5" y="635.5"/><ellipse cx="479.7" cy="651.5" fill="#ADD1B2" rx="11" ry="11" style="stroke:#181818;stroke-width:1.0;"/><path d="M482.4656,647.375 Q482.6219,647.1563 482.8094,647.0469 Q482.9969,646.9375 483.2156,646.9375 Q483.5906,646.9375 483.825,647.2031 Q484.0594,647.4531 484.0594,648.0625 L484.0594,649.5156 Q484.0594,650.125 483.825,650.3906 Q483.5906,650.6563 483.2156,650.6563 Q482.8719,650.6563 482.6688,650.4531 Q482.4656,650.2656 482.3563,649.75 Q482.3094,649.3906 482.1219,649.2031 Q481.7938,648.8281 481.1844,648.6094 Q480.575,648.3906 479.95,648.3906 Q479.1844,648.3906 478.5438,648.7188 Q477.9188,649.0469 477.4188,649.7969 Q476.9344,650.5469 476.9344,651.5781 L476.9344,652.6719 Q476.9344,653.9063 477.825,654.7344 Q478.7156,655.5469 480.3094,655.5469 Q481.2469,655.5469 481.9031,655.2969 Q482.2938,655.1406 482.7156,654.7031 Q482.9813,654.4375 483.1219,654.3594 Q483.2781,654.2813 483.4813,654.2813 Q483.8094,654.2813 484.0594,654.5469 Q484.325,654.7969 484.325,655.1406 Q484.325,655.4844 483.9813,655.8906 Q483.4813,656.4688 482.6844,656.7969 Q481.6063,657.25 480.3094,657.25 Q478.7938,657.25 477.5906,656.625 Q476.6063,656.125 475.9188,655.0625 Q475.2313,653.9844 475.2313,652.7031 L475.2313,651.5469 Q475.2313,650.2188 475.8406,649.0781 Q476.4656,647.9219 477.5594,647.3125 Q478.6531,646.6875 479.8875,646.6875 Q480.6219,646.6875 481.2625,646.8594 Q481.9188,647.0156 482.4656,647.375 Z " fill="#000000"/><text fill="#000000" font-family="sans-serif" font-size="14" lengthAdjust="spacing" textLength="121" x="497.3" y="657.2285">CoursesRepository</text><line style="stroke:#181818;stroke-width:0.5;" x1="449.5" x2="636.5" y1="667.5" y2="667.5"/><line style="stroke:#181818;stroke-width:0.5;" x1="449.5" x2="636.5" y1="675.5" y2="675.5"/><text fill="#000000" font-family="sans-serif" font-size="14" lengthAdjust="spacing" textLength="101" x="454.5" y="694.0332">create_course()</text><text fill="#000000" font-family="sans-serif" font-size="14" lengthAdjust="spacing" textLength="110" x="454.5" y="711.6426">get_all_courses()</text><text fill="#000000" font-family="sans-serif" font-size="14" lengthAdjust="spacing" textLength="123" x="454.5" y="729.252">get_course_by_id()</text><text fill="#000000" font-family="sans-serif" font-size="14" lengthAdjust="spacing" textLength="105" x="454.5" y="746.8613">update_course()</text><text fill="#000000" font-family="sans-serif" font-size="14" lengthAdjust="spacing" textLength="100" x="454.5" y="764.4707">delete_course()</text><text fill="#000000" font-family="sans-serif" font-size="14" lengthAdjust="spacing" textLength="177" x="454.5" y="782.0801">search_courses_by_name()</text><text fill="#000000" font-family="sans-serif" font-size="14" lengthAdjust="spacing" textLength="95" x="454.5" y="799.6895">filter_courses()</text></g><!--class ExamDistributionRepository--><g id="elem_ExamDistributionRepository"><rect codeLine="32" fill="#F1F1F1" height="153.6563" id="ExamDistributionRepository" rx="2.5" ry="2.5" style="stroke:#181818;stroke-width:0.5;" width="206" x="687" y="644"/><ellipse cx="702.45" cy="660" fill="#ADD1B2" rx="11" ry="11" style="stroke:#181818;stroke-width:1.0;"/><path d="M705.2156,655.875 Q705.3719,655.6563 705.5594,655.5469 Q705.7469,655.4375 705.9656,655.4375 Q706.3406,655.4375 706.575,655.7031 Q706.8094,655.9531 706.8094,656.5625 L706.8094,658.0156 Q706.8094,658.625 706.575,658.8906 Q706.3406,659.1563 705.9656,659.1563 Q705.6219,659.1563 705.4188,658.9531 Q705.2156,658.7656 705.1063,658.25 Q705.0594,657.8906 704.8719,657.7031 Q704.5438,657.3281 703.9344,657.1094 Q703.325,656.8906 702.7,656.8906 Q701.9344,656.8906 701.2938,657.2188 Q700.6688,657.5469 700.1688,658.2969 Q699.6844,659.0469 699.6844,660.0781 L699.6844,661.1719 Q699.6844,662.4063 700.575,663.2344 Q701.4656,664.0469 703.0594,664.0469 Q703.9969,664.0469 704.6531,663.7969 Q705.0438,663.6406 705.4656,663.2031 Q705.7313,662.9375 705.8719,662.8594 Q706.0281,662.7813 706.2313,662.7813 Q706.5594,662.7813 706.8094,663.0469 Q707.075,663.2969 707.075,663.6406 Q707.075,663.9844 706.7313,664.3906 Q706.2313,664.9688 705.4344,665.2969 Q704.3563,665.75 703.0594,665.75 Q701.5438,665.75 700.3406,665.125 Q699.3563,664.625 698.6688,663.5625 Q697.9813,662.4844 697.9813,661.2031 L697.9813,660.0469 Q697.9813,658.7188 698.5906,657.5781 Q699.2156,656.4219 700.3094,655.8125 Q701.4031,655.1875 702.6375,655.1875 Q703.3719,655.1875 704.0125,655.3594 Q704.6688,655.5156 705.2156,655.875 Z " fill="#000000"/><text fill="#000000" font-family="sans-serif" font-size="14" lengthAdjust="spacing" textLength="173" x="716.55" y="665.7285">ExamDistributionRepository</text><line style="stroke:#181818;stroke-width:0.5;" x1="688" x2="892" y1="676" y2="676"/><line style="stroke:#181818;stroke-width:0.5;" x1="688" x2="892" y1="684" y2="684"/><text fill="#000000" font-family="sans-serif" font-size="14" lengthAdjust="spacing" textLength="167" x="693" y="702.5332">assign_exam_to_student()</text><text fill="#000000" font-family="sans-serif" font-size="14" lengthAdjust="spacing" textLength="172" x="693" y="720.1426">update_exam_distribution()</text><text fill="#000000" font-family="sans-serif" font-size="14" lengthAdjust="spacing" textLength="189" x="693" y="737.752">delete_multiple_distributions()</text><text fill="#000000" font-family="sans-serif" font-size="14" lengthAdjust="spacing" textLength="127" x="693" y="755.3613">get_student_by_id()</text><text fill="#000000" font-family="sans-serif" font-size="14" lengthAdjust="spacing" textLength="194" x="693" y="772.9707">get_exam_distribution_report()</text><text fill="#000000" font-family="sans-serif" font-size="14" lengthAdjust="spacing" textLength="111" x="693" y="790.5801">_format_header()</text></g><!--class ExamsExcelRepository--><g id="elem_ExamsExcelRepository"><rect codeLine="41" fill="#F1F1F1" height="83.2188" id="ExamsExcelRepository" rx="2.5" ry="2.5" style="stroke:#181818;stroke-width:0.5;" width="174" x="946" y="679.5"/><ellipse cx="961" cy="695.5" fill="#ADD1B2" rx="11" ry="11" style="stroke:#181818;stroke-width:1.0;"/><path d="M963.7656,691.375 Q963.9219,691.1563 964.1094,691.0469 Q964.2969,690.9375 964.5156,690.9375 Q964.8906,690.9375 965.125,691.2031 Q965.3594,691.4531 965.3594,692.0625 L965.3594,693.5156 Q965.3594,694.125 965.125,694.3906 Q964.8906,694.6563 964.5156,694.6563 Q964.1719,694.6563 963.9688,694.4531 Q963.7656,694.2656 963.6563,693.75 Q963.6094,693.3906 963.4219,693.2031 Q963.0938,692.8281 962.4844,692.6094 Q961.875,692.3906 961.25,692.3906 Q960.4844,692.3906 959.8438,692.7188 Q959.2188,693.0469 958.7188,693.7969 Q958.2344,694.5469 958.2344,695.5781 L958.2344,696.6719 Q958.2344,697.9063 959.125,698.7344 Q960.0156,699.5469 961.6094,699.5469 Q962.5469,699.5469 963.2031,699.2969 Q963.5938,699.1406 964.0156,698.7031 Q964.2813,698.4375 964.4219,698.3594 Q964.5781,698.2813 964.7813,698.2813 Q965.1094,698.2813 965.3594,698.5469 Q965.625,698.7969 965.625,699.1406 Q965.625,699.4844 965.2813,699.8906 Q964.7813,700.4688 963.9844,700.7969 Q962.9063,701.25 961.6094,701.25 Q960.0938,701.25 958.8906,700.625 Q957.9063,700.125 957.2188,699.0625 Q956.5313,697.9844 956.5313,696.7031 L956.5313,695.5469 Q956.5313,694.2188 957.1406,693.0781 Q957.7656,691.9219 958.8594,691.3125 Q959.9531,690.6875 961.1875,690.6875 Q961.9219,690.6875 962.5625,690.8594 Q963.2188,691.0156 963.7656,691.375 Z " fill="#000000"/><text fill="#000000" font-family="sans-serif" font-size="14" lengthAdjust="spacing" textLength="142" x="975" y="701.2285">ExamsExcelRepository</text><line style="stroke:#181818;stroke-width:0.5;" x1="947" x2="1119" y1="711.5" y2="711.5"/><line style="stroke:#181818;stroke-width:0.5;" x1="947" x2="1119" y1="719.5" y2="719.5"/><text fill="#000000" font-family="sans-serif" font-size="14" lengthAdjust="spacing" textLength="143" x="952" y="738.0332">validate_exams_data()</text><text fill="#000000" font-family="sans-serif" font-size="14" lengthAdjust="spacing" textLength="132" x="952" y="755.6426">bulk_create_exams()</text></g><!--class ExamsRepository--><g id="elem_ExamsRepository"><rect codeLine="46" fill="#F1F1F1" height="171.2656" id="ExamsRepository" rx="2.5" ry="2.5" style="stroke:#181818;stroke-width:0.5;" width="154" x="1179" y="885"/><ellipse cx="1199.85" cy="901" fill="#ADD1B2" rx="11" ry="11" style="stroke:#181818;stroke-width:1.0;"/><path d="M1202.6156,896.875 Q1202.7719,896.6563 1202.9594,896.5469 Q1203.1469,896.4375 1203.3656,896.4375 Q1203.7406,896.4375 1203.975,896.7031 Q1204.2094,896.9531 1204.2094,897.5625 L1204.2094,899.0156 Q1204.2094,899.625 1203.975,899.8906 Q1203.7406,900.1563 1203.3656,900.1563 Q1203.0219,900.1563 1202.8188,899.9531 Q1202.6156,899.7656 1202.5063,899.25 Q1202.4594,898.8906 1202.2719,898.7031 Q1201.9438,898.3281 1201.3344,898.1094 Q1200.725,897.8906 1200.1,897.8906 Q1199.3344,897.8906 1198.6938,898.2188 Q1198.0688,898.5469 1197.5688,899.2969 Q1197.0844,900.0469 1197.0844,901.0781 L1197.0844,902.1719 Q1197.0844,903.4063 1197.975,904.2344 Q1198.8656,905.0469 1200.4594,905.0469 Q1201.3969,905.0469 1202.0531,904.7969 Q1202.4438,904.6406 1202.8656,904.2031 Q1203.1313,903.9375 1203.2719,903.8594 Q1203.4281,903.7813 1203.6313,903.7813 Q1203.9594,903.7813 1204.2094,904.0469 Q1204.475,904.2969 1204.475,904.6406 Q1204.475,904.9844 1204.1313,905.3906 Q1203.6313,905.9688 1202.8344,906.2969 Q1201.7563,906.75 1200.4594,906.75 Q1198.9438,906.75 1197.7406,906.125 Q1196.7563,905.625 1196.0688,904.5625 Q1195.3813,903.4844 1195.3813,902.2031 L1195.3813,901.0469 Q1195.3813,899.7188 1195.9906,898.5781 Q1196.6156,897.4219 1197.7094,896.8125 Q1198.8031,896.1875 1200.0375,896.1875 Q1200.7719,896.1875 1201.4125,896.3594 Q1202.0688,896.5156 1202.6156,896.875 Z " fill="#000000"/><text fill="#000000" font-family="sans-serif" font-size="14" lengthAdjust="spacing" textLength="109" x="1215.15" y="906.7285">ExamsRepository</text><line style="stroke:#181818;stroke-width:0.5;" x1="1180" x2="1332" y1="917" y2="917"/><line style="stroke:#181818;stroke-width:0.5;" x1="1180" x2="1332" y1="925" y2="925"/><text fill="#000000" font-family="sans-serif" font-size="14" lengthAdjust="spacing" textLength="91" x="1185" y="943.5332">create_exam()</text><text fill="#000000" font-family="sans-serif" font-size="14" lengthAdjust="spacing" textLength="113" x="1185" y="961.1426">get_exam_by_id()</text><text fill="#000000" font-family="sans-serif" font-size="14" lengthAdjust="spacing" textLength="97" x="1185" y="978.752">delete_exams()</text><text fill="#000000" font-family="sans-serif" font-size="14" lengthAdjust="spacing" textLength="95" x="1185" y="996.3613">update_exam()</text><text fill="#000000" font-family="sans-serif" font-size="14" lengthAdjust="spacing" textLength="85" x="1185" y="1013.9707">filter_exams()</text><text fill="#000000" font-family="sans-serif" font-size="14" lengthAdjust="spacing" textLength="114" x="1185" y="1031.5801">get_exam_dates()</text><text fill="#000000" font-family="sans-serif" font-size="14" lengthAdjust="spacing" textLength="142" x="1185" y="1049.1895">get_exam_time_slots()</text></g><!--class SemestersRepository--><g id="elem_SemestersRepository"><rect codeLine="56" fill="#F1F1F1" height="136.0469" id="SemestersRepository" rx="2.5" ry="2.5" style="stroke:#181818;stroke-width:0.5;" width="167" x="1404.5" y="653"/><ellipse cx="1419.5" cy="669" fill="#ADD1B2" rx="11" ry="11" style="stroke:#181818;stroke-width:1.0;"/><path d="M1422.2656,664.875 Q1422.4219,664.6563 1422.6094,664.5469 Q1422.7969,664.4375 1423.0156,664.4375 Q1423.3906,664.4375 1423.625,664.7031 Q1423.8594,664.9531 1423.8594,665.5625 L1423.8594,667.0156 Q1423.8594,667.625 1423.625,667.8906 Q1423.3906,668.1563 1423.0156,668.1563 Q1422.6719,668.1563 1422.4688,667.9531 Q1422.2656,667.7656 1422.1563,667.25 Q1422.1094,666.8906 1421.9219,666.7031 Q1421.5938,666.3281 1420.9844,666.1094 Q1420.375,665.8906 1419.75,665.8906 Q1418.9844,665.8906 1418.3438,666.2188 Q1417.7188,666.5469 1417.2188,667.2969 Q1416.7344,668.0469 1416.7344,669.0781 L1416.7344,670.1719 Q1416.7344,671.4063 1417.625,672.2344 Q1418.5156,673.0469 1420.1094,673.0469 Q1421.0469,673.0469 1421.7031,672.7969 Q1422.0938,672.6406 1422.5156,672.2031 Q1422.7813,671.9375 1422.9219,671.8594 Q1423.0781,671.7813 1423.2813,671.7813 Q1423.6094,671.7813 1423.8594,672.0469 Q1424.125,672.2969 1424.125,672.6406 Q1424.125,672.9844 1423.7813,673.3906 Q1423.2813,673.9688 1422.4844,674.2969 Q1421.4063,674.75 1420.1094,674.75 Q1418.5938,674.75 1417.3906,674.125 Q1416.4063,673.625 1415.7188,672.5625 Q1415.0313,671.4844 1415.0313,670.2031 L1415.0313,669.0469 Q1415.0313,667.7188 1415.6406,666.5781 Q1416.2656,665.4219 1417.3594,664.8125 Q1418.4531,664.1875 1419.6875,664.1875 Q1420.4219,664.1875 1421.0625,664.3594 Q1421.7188,664.5156 1422.2656,664.875 Z " fill="#000000"/><text fill="#000000" font-family="sans-serif" font-size="14" lengthAdjust="spacing" textLength="135" x="1433.5" y="674.7285">SemestersRepository</text><line style="stroke:#181818;stroke-width:0.5;" x1="1405.5" x2="1570.5" y1="685" y2="685"/><line style="stroke:#181818;stroke-width:0.5;" x1="1405.5" x2="1570.5" y1="693" y2="693"/><text fill="#000000" font-family="sans-serif" font-size="14" lengthAdjust="spacing" textLength="116" x="1410.5" y="711.5332">create_semester()</text><text fill="#000000" font-family="sans-serif" font-size="14" lengthAdjust="spacing" textLength="125" x="1410.5" y="729.1426">get_all_semesters()</text><text fill="#000000" font-family="sans-serif" font-size="14" lengthAdjust="spacing" textLength="138" x="1410.5" y="746.752">get_semester_by_id()</text><text fill="#000000" font-family="sans-serif" font-size="14" lengthAdjust="spacing" textLength="120" x="1410.5" y="764.3613">update_semester()</text><text fill="#000000" font-family="sans-serif" font-size="14" lengthAdjust="spacing" textLength="115" x="1410.5" y="781.9707">delete_semester()</text></g><!--class MajorsRepository--><g id="elem_MajorsRepository"><rect codeLine="65" fill="#F1F1F1" height="136.0469" id="MajorsRepository" rx="2.5" ry="2.5" style="stroke:#181818;stroke-width:0.5;" width="168" x="1621" y="653"/><ellipse cx="1647.7" cy="669" fill="#ADD1B2" rx="11" ry="11" style="stroke:#181818;stroke-width:1.0;"/><path d="M1650.4656,664.875 Q1650.6219,664.6563 1650.8094,664.5469 Q1650.9969,664.4375 1651.2156,664.4375 Q1651.5906,664.4375 1651.825,664.7031 Q1652.0594,664.9531 1652.0594,665.5625 L1652.0594,667.0156 Q1652.0594,667.625 1651.825,667.8906 Q1651.5906,668.1563 1651.2156,668.1563 Q1650.8719,668.1563 1650.6688,667.9531 Q1650.4656,667.7656 1650.3563,667.25 Q1650.3094,666.8906 1650.1219,666.7031 Q1649.7938,666.3281 1649.1844,666.1094 Q1648.575,665.8906 1647.95,665.8906 Q1647.1844,665.8906 1646.5438,666.2188 Q1645.9188,666.5469 1645.4188,667.2969 Q1644.9344,668.0469 1644.9344,669.0781 L1644.9344,670.1719 Q1644.9344,671.4063 1645.825,672.2344 Q1646.7156,673.0469 1648.3094,673.0469 Q1649.2469,673.0469 1649.9031,672.7969 Q1650.2938,672.6406 1650.7156,672.2031 Q1650.9813,671.9375 1651.1219,671.8594 Q1651.2781,671.7813 1651.4813,671.7813 Q1651.8094,671.7813 1652.0594,672.0469 Q1652.325,672.2969 1652.325,672.6406 Q1652.325,672.9844 1651.9813,673.3906 Q1651.4813,673.9688 1650.6844,674.2969 Q1649.6063,674.75 1648.3094,674.75 Q1646.7938,674.75 1645.5906,674.125 Q1644.6063,673.625 1643.9188,672.5625 Q1643.2313,671.4844 1643.2313,670.2031 L1643.2313,669.0469 Q1643.2313,667.7188 1643.8406,666.5781 Q1644.4656,665.4219 1645.5594,664.8125 Q1646.6531,664.1875 1647.8875,664.1875 Q1648.6219,664.1875 1649.2625,664.3594 Q1649.9188,664.5156 1650.4656,664.875 Z " fill="#000000"/><text fill="#000000" font-family="sans-serif" font-size="14" lengthAdjust="spacing" textLength="110" x="1664.3" y="674.7285">MajorsRepository</text><line style="stroke:#181818;stroke-width:0.5;" x1="1622" x2="1788" y1="685" y2="685"/><line style="stroke:#181818;stroke-width:0.5;" x1="1622" x2="1788" y1="693" y2="693"/><text fill="#000000" font-family="sans-serif" font-size="14" lengthAdjust="spacing" textLength="93" x="1627" y="711.5332">create_major()</text><text fill="#000000" font-family="sans-serif" font-size="14" lengthAdjust="spacing" textLength="73" x="1627" y="729.1426">get_major()</text><text fill="#000000" font-family="sans-serif" font-size="14" lengthAdjust="spacing" textLength="156" x="1627" y="746.752">get_majors_by_college()</text><text fill="#000000" font-family="sans-serif" font-size="14" lengthAdjust="spacing" textLength="97" x="1627" y="764.3613">update_major()</text><text fill="#000000" font-family="sans-serif" font-size="14" lengthAdjust="spacing" textLength="92" x="1627" y="781.9707">delete_major()</text></g><!--class LevelsRepository--><g id="elem_LevelsRepository"><rect codeLine="74" fill="#F1F1F1" height="136.0469" id="LevelsRepository" rx="2.5" ry="2.5" style="stroke:#181818;stroke-width:0.5;" width="141" x="1837.5" y="653"/><ellipse cx="1852.5" cy="669" fill="#ADD1B2" rx="11" ry="11" style="stroke:#181818;stroke-width:1.0;"/><path d="M1855.2656,664.875 Q1855.4219,664.6563 1855.6094,664.5469 Q1855.7969,664.4375 1856.0156,664.4375 Q1856.3906,664.4375 1856.625,664.7031 Q1856.8594,664.9531 1856.8594,665.5625 L1856.8594,667.0156 Q1856.8594,667.625 1856.625,667.8906 Q1856.3906,668.1563 1856.0156,668.1563 Q1855.6719,668.1563 1855.4688,667.9531 Q1855.2656,667.7656 1855.1563,667.25 Q1855.1094,666.8906 1854.9219,666.7031 Q1854.5938,666.3281 1853.9844,666.1094 Q1853.375,665.8906 1852.75,665.8906 Q1851.9844,665.8906 1851.3438,666.2188 Q1850.7188,666.5469 1850.2188,667.2969 Q1849.7344,668.0469 1849.7344,669.0781 L1849.7344,670.1719 Q1849.7344,671.4063 1850.625,672.2344 Q1851.5156,673.0469 1853.1094,673.0469 Q1854.0469,673.0469 1854.7031,672.7969 Q1855.0938,672.6406 1855.5156,672.2031 Q1855.7813,671.9375 1855.9219,671.8594 Q1856.0781,671.7813 1856.2813,671.7813 Q1856.6094,671.7813 1856.8594,672.0469 Q1857.125,672.2969 1857.125,672.6406 Q1857.125,672.9844 1856.7813,673.3906 Q1856.2813,673.9688 1855.4844,674.2969 Q1854.4063,674.75 1853.1094,674.75 Q1851.5938,674.75 1850.3906,674.125 Q1849.4063,673.625 1848.7188,672.5625 Q1848.0313,671.4844 1848.0313,670.2031 L1848.0313,669.0469 Q1848.0313,667.7188 1848.6406,666.5781 Q1849.2656,665.4219 1850.3594,664.8125 Q1851.4531,664.1875 1852.6875,664.1875 Q1853.4219,664.1875 1854.0625,664.3594 Q1854.7188,664.5156 1855.2656,664.875 Z " fill="#000000"/><text fill="#000000" font-family="sans-serif" font-size="14" lengthAdjust="spacing" textLength="109" x="1866.5" y="674.7285">LevelsRepository</text><line style="stroke:#181818;stroke-width:0.5;" x1="1838.5" x2="1977.5" y1="685" y2="685"/><line style="stroke:#181818;stroke-width:0.5;" x1="1838.5" x2="1977.5" y1="693" y2="693"/><text fill="#000000" font-family="sans-serif" font-size="14" lengthAdjust="spacing" textLength="87" x="1843.5" y="711.5332">create_level()</text><text fill="#000000" font-family="sans-serif" font-size="14" lengthAdjust="spacing" textLength="67" x="1843.5" y="729.1426">get_level()</text><text fill="#000000" font-family="sans-serif" font-size="14" lengthAdjust="spacing" textLength="96" x="1843.5" y="746.752">get_all_levels()</text><text fill="#000000" font-family="sans-serif" font-size="14" lengthAdjust="spacing" textLength="91" x="1843.5" y="764.3613">update_level()</text><text fill="#000000" font-family="sans-serif" font-size="14" lengthAdjust="spacing" textLength="86" x="1843.5" y="781.9707">delete_level()</text></g><!--class AcademicYearsService--><g id="elem_AcademicYearsService"><rect codeLine="84" fill="#F1F1F1" height="171.2656" id="AcademicYearsService" rx="2.5" ry="2.5" style="stroke:#181818;stroke-width:0.5;" width="177" x="23.5" y="635.5"/><ellipse cx="38.5" cy="651.5" fill="#ADD1B2" rx="11" ry="11" style="stroke:#181818;stroke-width:1.0;"/><path d="M41.2656,647.375 Q41.4219,647.1563 41.6094,647.0469 Q41.7969,646.9375 42.0156,646.9375 Q42.3906,646.9375 42.625,647.2031 Q42.8594,647.4531 42.8594,648.0625 L42.8594,649.5156 Q42.8594,650.125 42.625,650.3906 Q42.3906,650.6563 42.0156,650.6563 Q41.6719,650.6563 41.4688,650.4531 Q41.2656,650.2656 41.1563,649.75 Q41.1094,649.3906 40.9219,649.2031 Q40.5938,648.8281 39.9844,648.6094 Q39.375,648.3906 38.75,648.3906 Q37.9844,648.3906 37.3438,648.7188 Q36.7188,649.0469 36.2188,649.7969 Q35.7344,650.5469 35.7344,651.5781 L35.7344,652.6719 Q35.7344,653.9063 36.625,654.7344 Q37.5156,655.5469 39.1094,655.5469 Q40.0469,655.5469 40.7031,655.2969 Q41.0938,655.1406 41.5156,654.7031 Q41.7813,654.4375 41.9219,654.3594 Q42.0781,654.2813 42.2813,654.2813 Q42.6094,654.2813 42.8594,654.5469 Q43.125,654.7969 43.125,655.1406 Q43.125,655.4844 42.7813,655.8906 Q42.2813,656.4688 41.4844,656.7969 Q40.4063,657.25 39.1094,657.25 Q37.5938,657.25 36.3906,656.625 Q35.4063,656.125 34.7188,655.0625 Q34.0313,653.9844 34.0313,652.7031 L34.0313,651.5469 Q34.0313,650.2188 34.6406,649.0781 Q35.2656,647.9219 36.3594,647.3125 Q37.4531,646.6875 38.6875,646.6875 Q39.4219,646.6875 40.0625,646.8594 Q40.7188,647.0156 41.2656,647.375 Z " fill="#000000"/><text fill="#000000" font-family="sans-serif" font-size="14" lengthAdjust="spacing" textLength="145" x="52.5" y="657.2285">AcademicYearsService</text><line style="stroke:#181818;stroke-width:0.5;" x1="24.5" x2="199.5" y1="667.5" y2="667.5"/><text fill="#000000" font-family="sans-serif" font-size="14" lengthAdjust="spacing" textLength="29" x="29.5" y="686.0332">repo</text><line style="stroke:#181818;stroke-width:0.5;" x1="24.5" x2="199.5" y1="693.1094" y2="693.1094"/><text fill="#000000" font-family="sans-serif" font-size="14" lengthAdjust="spacing" textLength="86" x="29.5" y="711.6426">create_year()</text><text fill="#000000" font-family="sans-serif" font-size="14" lengthAdjust="spacing" textLength="95" x="29.5" y="729.252">get_all_years()</text><text fill="#000000" font-family="sans-serif" font-size="14" lengthAdjust="spacing" textLength="108" x="29.5" y="746.8613">get_year_by_id()</text><text fill="#000000" font-family="sans-serif" font-size="14" lengthAdjust="spacing" textLength="90" x="29.5" y="764.4707">update_year()</text><text fill="#000000" font-family="sans-serif" font-size="14" lengthAdjust="spacing" textLength="85" x="29.5" y="782.0801">delete_year()</text><text fill="#000000" font-family="sans-serif" font-size="14" lengthAdjust="spacing" textLength="60" x="29.5" y="799.6895">__init__()</text></g><!--class CollegesService--><g id="elem_CollegesService"><rect codeLine="94" fill="#F1F1F1" height="171.2656" id="CollegesService" rx="2.5" ry="2.5" style="stroke:#181818;stroke-width:0.5;" width="134" x="269" y="325"/><ellipse cx="284" cy="341" fill="#ADD1B2" rx="11" ry="11" style="stroke:#181818;stroke-width:1.0;"/><path d="M286.7656,336.875 Q286.9219,336.6563 287.1094,336.5469 Q287.2969,336.4375 287.5156,336.4375 Q287.8906,336.4375 288.125,336.7031 Q288.3594,336.9531 288.3594,337.5625 L288.3594,339.0156 Q288.3594,339.625 288.125,339.8906 Q287.8906,340.1563 287.5156,340.1563 Q287.1719,340.1563 286.9688,339.9531 Q286.7656,339.7656 286.6563,339.25 Q286.6094,338.8906 286.4219,338.7031 Q286.0938,338.3281 285.4844,338.1094 Q284.875,337.8906 284.25,337.8906 Q283.4844,337.8906 282.8438,338.2188 Q282.2188,338.5469 281.7188,339.2969 Q281.2344,340.0469 281.2344,341.0781 L281.2344,342.1719 Q281.2344,343.4063 282.125,344.2344 Q283.0156,345.0469 284.6094,345.0469 Q285.5469,345.0469 286.2031,344.7969 Q286.5938,344.6406 287.0156,344.2031 Q287.2813,343.9375 287.4219,343.8594 Q287.5781,343.7813 287.7813,343.7813 Q288.1094,343.7813 288.3594,344.0469 Q288.625,344.2969 288.625,344.6406 Q288.625,344.9844 288.2813,345.3906 Q287.7813,345.9688 286.9844,346.2969 Q285.9063,346.75 284.6094,346.75 Q283.0938,346.75 281.8906,346.125 Q280.9063,345.625 280.2188,344.5625 Q279.5313,343.4844 279.5313,342.2031 L279.5313,341.0469 Q279.5313,339.7188 280.1406,338.5781 Q280.7656,337.4219 281.8594,336.8125 Q282.9531,336.1875 284.1875,336.1875 Q284.9219,336.1875 285.5625,336.3594 Q286.2188,336.5156 286.7656,336.875 Z " fill="#000000"/><text fill="#000000" font-family="sans-serif" font-size="14" lengthAdjust="spacing" textLength="102" x="298" y="346.7285">CollegesService</text><line style="stroke:#181818;stroke-width:0.5;" x1="270" x2="402" y1="357" y2="357"/><text fill="#000000" font-family="sans-serif" font-size="14" lengthAdjust="spacing" textLength="29" x="275" y="375.5332">repo</text><line style="stroke:#181818;stroke-width:0.5;" x1="270" x2="402" y1="382.6094" y2="382.6094"/><text fill="#000000" font-family="sans-serif" font-size="14" lengthAdjust="spacing" textLength="103" x="275" y="401.1426">create_college()</text><text fill="#000000" font-family="sans-serif" font-size="14" lengthAdjust="spacing" textLength="83" x="275" y="418.752">get_college()</text><text fill="#000000" font-family="sans-serif" font-size="14" lengthAdjust="spacing" textLength="112" x="275" y="436.3613">get_all_colleges()</text><text fill="#000000" font-family="sans-serif" font-size="14" lengthAdjust="spacing" textLength="107" x="275" y="453.9707">update_college()</text><text fill="#000000" font-family="sans-serif" font-size="14" lengthAdjust="spacing" textLength="102" x="275" y="471.5801">delete_college()</text><text fill="#000000" font-family="sans-serif" font-size="14" lengthAdjust="spacing" textLength="60" x="275" y="489.1895">__init__()</text></g><!--class CoursesService--><g id="elem_CoursesService"><rect codeLine="104" fill="#F1F1F1" height="206.4844" id="CoursesService" rx="2.5" ry="2.5" style="stroke:#181818;stroke-width:0.5;" width="135" x="475.5" y="307.5"/><ellipse cx="491.85" cy="323.5" fill="#ADD1B2" rx="11" ry="11" style="stroke:#181818;stroke-width:1.0;"/><path d="M494.6156,319.375 Q494.7719,319.1563 494.9594,319.0469 Q495.1469,318.9375 495.3656,318.9375 Q495.7406,318.9375 495.975,319.2031 Q496.2094,319.4531 496.2094,320.0625 L496.2094,321.5156 Q496.2094,322.125 495.975,322.3906 Q495.7406,322.6563 495.3656,322.6563 Q495.0219,322.6563 494.8188,322.4531 Q494.6156,322.2656 494.5063,321.75 Q494.4594,321.3906 494.2719,321.2031 Q493.9438,320.8281 493.3344,320.6094 Q492.725,320.3906 492.1,320.3906 Q491.3344,320.3906 490.6938,320.7188 Q490.0688,321.0469 489.5688,321.7969 Q489.0844,322.5469 489.0844,323.5781 L489.0844,324.6719 Q489.0844,325.9063 489.975,326.7344 Q490.8656,327.5469 492.4594,327.5469 Q493.3969,327.5469 494.0531,327.2969 Q494.4438,327.1406 494.8656,326.7031 Q495.1313,326.4375 495.2719,326.3594 Q495.4281,326.2813 495.6313,326.2813 Q495.9594,326.2813 496.2094,326.5469 Q496.475,326.7969 496.475,327.1406 Q496.475,327.4844 496.1313,327.8906 Q495.6313,328.4688 494.8344,328.7969 Q493.7563,329.25 492.4594,329.25 Q490.9438,329.25 489.7406,328.625 Q488.7563,328.125 488.0688,327.0625 Q487.3813,325.9844 487.3813,324.7031 L487.3813,323.5469 Q487.3813,322.2188 487.9906,321.0781 Q488.6156,319.9219 489.7094,319.3125 Q490.8031,318.6875 492.0375,318.6875 Q492.7719,318.6875 493.4125,318.8594 Q494.0688,319.0156 494.6156,319.375 Z " fill="#000000"/><text fill="#000000" font-family="sans-serif" font-size="14" lengthAdjust="spacing" textLength="100" x="506.15" y="329.2285">CoursesService</text><line style="stroke:#181818;stroke-width:0.5;" x1="476.5" x2="609.5" y1="339.5" y2="339.5"/><text fill="#000000" font-family="sans-serif" font-size="14" lengthAdjust="spacing" textLength="29" x="481.5" y="358.0332">repo</text><line style="stroke:#181818;stroke-width:0.5;" x1="476.5" x2="609.5" y1="365.1094" y2="365.1094"/><text fill="#000000" font-family="sans-serif" font-size="14" lengthAdjust="spacing" textLength="101" x="481.5" y="383.6426">create_course()</text><text fill="#000000" font-family="sans-serif" font-size="14" lengthAdjust="spacing" textLength="110" x="481.5" y="401.252">get_all_courses()</text><text fill="#000000" font-family="sans-serif" font-size="14" lengthAdjust="spacing" textLength="123" x="481.5" y="418.8613">get_course_by_id()</text><text fill="#000000" font-family="sans-serif" font-size="14" lengthAdjust="spacing" textLength="105" x="481.5" y="436.4707">update_course()</text><text fill="#000000" font-family="sans-serif" font-size="14" lengthAdjust="spacing" textLength="100" x="481.5" y="454.0801">delete_course()</text><text fill="#000000" font-family="sans-serif" font-size="14" lengthAdjust="spacing" textLength="111" x="481.5" y="471.6895">search_courses()</text><text fill="#000000" font-family="sans-serif" font-size="14" lengthAdjust="spacing" textLength="95" x="481.5" y="489.2988">filter_courses()</text><text fill="#000000" font-family="sans-serif" font-size="14" lengthAdjust="spacing" textLength="60" x="481.5" y="506.9082">__init__()</text></g><!--class ExamDistributionService--><g id="elem_ExamDistributionService"><rect codeLine="116" fill="#F1F1F1" height="206.4844" id="ExamDistributionService" rx="2.5" ry="2.5" style="stroke:#181818;stroke-width:0.5;" width="206" x="687" y="307.5"/><ellipse cx="711.9" cy="323.5" fill="#ADD1B2" rx="11" ry="11" style="stroke:#181818;stroke-width:1.0;"/><path d="M714.6656,319.375 Q714.8219,319.1563 715.0094,319.0469 Q715.1969,318.9375 715.4156,318.9375 Q715.7906,318.9375 716.025,319.2031 Q716.2594,319.4531 716.2594,320.0625 L716.2594,321.5156 Q716.2594,322.125 716.025,322.3906 Q715.7906,322.6563 715.4156,322.6563 Q715.0719,322.6563 714.8688,322.4531 Q714.6656,322.2656 714.5563,321.75 Q714.5094,321.3906 714.3219,321.2031 Q713.9938,320.8281 713.3844,320.6094 Q712.775,320.3906 712.15,320.3906 Q711.3844,320.3906 710.7438,320.7188 Q710.1188,321.0469 709.6188,321.7969 Q709.1344,322.5469 709.1344,323.5781 L709.1344,324.6719 Q709.1344,325.9063 710.025,326.7344 Q710.9156,327.5469 712.5094,327.5469 Q713.4469,327.5469 714.1031,327.2969 Q714.4938,327.1406 714.9156,326.7031 Q715.1813,326.4375 715.3219,326.3594 Q715.4781,326.2813 715.6813,326.2813 Q716.0094,326.2813 716.2594,326.5469 Q716.525,326.7969 716.525,327.1406 Q716.525,327.4844 716.1813,327.8906 Q715.6813,328.4688 714.8844,328.7969 Q713.8063,329.25 712.5094,329.25 Q710.9938,329.25 709.7906,328.625 Q708.8063,328.125 708.1188,327.0625 Q707.4313,325.9844 707.4313,324.7031 L707.4313,323.5469 Q707.4313,322.2188 708.0406,321.0781 Q708.6656,319.9219 709.7594,319.3125 Q710.8531,318.6875 712.0875,318.6875 Q712.8219,318.6875 713.4625,318.8594 Q714.1188,319.0156 714.6656,319.375 Z " fill="#000000"/><text fill="#000000" font-family="sans-serif" font-size="14" lengthAdjust="spacing" textLength="152" x="728.1" y="329.2285">ExamDistributionService</text><line style="stroke:#181818;stroke-width:0.5;" x1="688" x2="892" y1="339.5" y2="339.5"/><text fill="#000000" font-family="sans-serif" font-size="14" lengthAdjust="spacing" textLength="63" x="693" y="358.0332">repository</text><line style="stroke:#181818;stroke-width:0.5;" x1="688" x2="892" y1="365.1094" y2="365.1094"/><text fill="#000000" font-family="sans-serif" font-size="14" lengthAdjust="spacing" textLength="167" x="693" y="383.6426">assign_exam_to_student()</text><text fill="#000000" font-family="sans-serif" font-size="14" lengthAdjust="spacing" textLength="172" x="693" y="401.252">update_exam_distribution()</text><text fill="#000000" font-family="sans-serif" font-size="14" lengthAdjust="spacing" textLength="189" x="693" y="418.8613">delete_multiple_distributions()</text><text fill="#000000" font-family="sans-serif" font-size="14" lengthAdjust="spacing" textLength="194" x="693" y="436.4707">get_exam_distribution_report()</text><text fill="#000000" font-family="sans-serif" font-size="14" lengthAdjust="spacing" textLength="116" x="693" y="454.0801">get_student_info()</text><text fill="#000000" font-family="sans-serif" font-size="14" lengthAdjust="spacing" textLength="149" x="693" y="471.6895">get_distribution_by_id()</text><text fill="#000000" font-family="sans-serif" font-size="14" lengthAdjust="spacing" textLength="121" x="693" y="489.2988">filter_distributions()</text><text fill="#000000" font-family="sans-serif" font-size="14" lengthAdjust="spacing" textLength="60" x="693" y="506.9082">__init__()</text></g><!--class ExamsExcelService--><g id="elem_ExamsExcelService"><rect codeLine="128" fill="#F1F1F1" height="259.3125" id="ExamsExcelService" rx="2.5" ry="2.5" style="stroke:#181818;stroke-width:0.5;" width="208" x="929" y="281"/><ellipse cx="968.75" cy="297" fill="#ADD1B2" rx="11" ry="11" style="stroke:#181818;stroke-width:1.0;"/><path d="M971.5156,292.875 Q971.6719,292.6563 971.8594,292.5469 Q972.0469,292.4375 972.2656,292.4375 Q972.6406,292.4375 972.875,292.7031 Q973.1094,292.9531 973.1094,293.5625 L973.1094,295.0156 Q973.1094,295.625 972.875,295.8906 Q972.6406,296.1563 972.2656,296.1563 Q971.9219,296.1563 971.7188,295.9531 Q971.5156,295.7656 971.4063,295.25 Q971.3594,294.8906 971.1719,294.7031 Q970.8438,294.3281 970.2344,294.1094 Q969.625,293.8906 969,293.8906 Q968.2344,293.8906 967.5938,294.2188 Q966.9688,294.5469 966.4688,295.2969 Q965.9844,296.0469 965.9844,297.0781 L965.9844,298.1719 Q965.9844,299.4063 966.875,300.2344 Q967.7656,301.0469 969.3594,301.0469 Q970.2969,301.0469 970.9531,300.7969 Q971.3438,300.6406 971.7656,300.2031 Q972.0313,299.9375 972.1719,299.8594 Q972.3281,299.7813 972.5313,299.7813 Q972.8594,299.7813 973.1094,300.0469 Q973.375,300.2969 973.375,300.6406 Q973.375,300.9844 973.0313,301.3906 Q972.5313,301.9688 971.7344,302.2969 Q970.6563,302.75 969.3594,302.75 Q967.8438,302.75 966.6406,302.125 Q965.6563,301.625 964.9688,300.5625 Q964.2813,299.4844 964.2813,298.2031 L964.2813,297.0469 Q964.2813,295.7188 964.8906,294.5781 Q965.5156,293.4219 966.6094,292.8125 Q967.7031,292.1875 968.9375,292.1875 Q969.6719,292.1875 970.3125,292.3594 Q970.9688,292.5156 971.5156,292.875 Z " fill="#000000"/><text fill="#000000" font-family="sans-serif" font-size="14" lengthAdjust="spacing" textLength="121" x="988.25" y="302.7285">ExamsExcelService</text><line style="stroke:#181818;stroke-width:0.5;" x1="930" x2="1136" y1="313" y2="313"/><text fill="#000000" font-family="sans-serif" font-size="14" lengthAdjust="spacing" textLength="29" x="935" y="331.5332">repo</text><line style="stroke:#181818;stroke-width:0.5;" x1="930" x2="1136" y1="338.6094" y2="338.6094"/><text fill="#000000" font-family="sans-serif" font-size="14" lengthAdjust="spacing" textLength="173" x="935" y="357.1426">import_exams_from_excel()</text><text fill="#000000" font-family="sans-serif" font-size="14" lengthAdjust="spacing" textLength="93" x="935" y="374.752">_validate_file()</text><text fill="#000000" font-family="sans-serif" font-size="14" lengthAdjust="spacing" textLength="127" x="935" y="392.3613">_validate_columns()</text><text fill="#000000" font-family="sans-serif" font-size="14" lengthAdjust="spacing" textLength="152" x="935" y="409.9707">_prepare_exams_data()</text><text fill="#000000" font-family="sans-serif" font-size="14" lengthAdjust="spacing" textLength="196" x="935" y="427.5801">_format_db_validation_errors()</text><text fill="#000000" font-family="sans-serif" font-size="14" lengthAdjust="spacing" textLength="136" x="935" y="445.1895">_translate_db_error()</text><text fill="#000000" font-family="sans-serif" font-size="14" lengthAdjust="spacing" textLength="88" x="935" y="462.7988">_convert_int()</text><text fill="#000000" font-family="sans-serif" font-size="14" lengthAdjust="spacing" textLength="101" x="935" y="480.4082">_convert_date()</text><text fill="#000000" font-family="sans-serif" font-size="14" lengthAdjust="spacing" textLength="99" x="935" y="498.0176">_convert_time()</text><text fill="#000000" font-family="sans-serif" font-size="14" lengthAdjust="spacing" textLength="104" x="935" y="515.627">_get_row_data()</text><text fill="#000000" font-family="sans-serif" font-size="14" lengthAdjust="spacing" textLength="60" x="935" y="533.2363">__init__()</text></g><!--class ExamsService--><g id="elem_ExamsService"><rect codeLine="143" fill="#F1F1F1" height="206.4844" id="ExamsService" rx="2.5" ry="2.5" style="stroke:#181818;stroke-width:0.5;" width="156" x="1178" y="618"/><ellipse cx="1209.2" cy="634" fill="#ADD1B2" rx="11" ry="11" style="stroke:#181818;stroke-width:1.0;"/><path d="M1211.9656,629.875 Q1212.1219,629.6563 1212.3094,629.5469 Q1212.4969,629.4375 1212.7156,629.4375 Q1213.0906,629.4375 1213.325,629.7031 Q1213.5594,629.9531 1213.5594,630.5625 L1213.5594,632.0156 Q1213.5594,632.625 1213.325,632.8906 Q1213.0906,633.1563 1212.7156,633.1563 Q1212.3719,633.1563 1212.1688,632.9531 Q1211.9656,632.7656 1211.8563,632.25 Q1211.8094,631.8906 1211.6219,631.7031 Q1211.2938,631.3281 1210.6844,631.1094 Q1210.075,630.8906 1209.45,630.8906 Q1208.6844,630.8906 1208.0438,631.2188 Q1207.4188,631.5469 1206.9188,632.2969 Q1206.4344,633.0469 1206.4344,634.0781 L1206.4344,635.1719 Q1206.4344,636.4063 1207.325,637.2344 Q1208.2156,638.0469 1209.8094,638.0469 Q1210.7469,638.0469 1211.4031,637.7969 Q1211.7938,637.6406 1212.2156,637.2031 Q1212.4813,636.9375 1212.6219,636.8594 Q1212.7781,636.7813 1212.9813,636.7813 Q1213.3094,636.7813 1213.5594,637.0469 Q1213.825,637.2969 1213.825,637.6406 Q1213.825,637.9844 1213.4813,638.3906 Q1212.9813,638.9688 1212.1844,639.2969 Q1211.1063,639.75 1209.8094,639.75 Q1208.2938,639.75 1207.0906,639.125 Q1206.1063,638.625 1205.4188,637.5625 Q1204.7313,636.4844 1204.7313,635.2031 L1204.7313,634.0469 Q1204.7313,632.7188 1205.3406,631.5781 Q1205.9656,630.4219 1207.0594,629.8125 Q1208.1531,629.1875 1209.3875,629.1875 Q1210.1219,629.1875 1210.7625,629.3594 Q1211.4188,629.5156 1211.9656,629.875 Z " fill="#000000"/><text fill="#000000" font-family="sans-serif" font-size="14" lengthAdjust="spacing" textLength="88" x="1226.8" y="639.7285">ExamsService</text><line style="stroke:#181818;stroke-width:0.5;" x1="1179" x2="1333" y1="650" y2="650"/><text fill="#000000" font-family="sans-serif" font-size="14" lengthAdjust="spacing" textLength="29" x="1184" y="668.5332">repo</text><line style="stroke:#181818;stroke-width:0.5;" x1="1179" x2="1333" y1="675.6094" y2="675.6094"/><text fill="#000000" font-family="sans-serif" font-size="14" lengthAdjust="spacing" textLength="91" x="1184" y="694.1426">create_exam()</text><text fill="#000000" font-family="sans-serif" font-size="14" lengthAdjust="spacing" textLength="95" x="1184" y="711.752">update_exam()</text><text fill="#000000" font-family="sans-serif" font-size="14" lengthAdjust="spacing" textLength="144" x="1184" y="729.3613">_validate_exam_data()</text><text fill="#000000" font-family="sans-serif" font-size="14" lengthAdjust="spacing" textLength="85" x="1184" y="746.9707">filter_exams()</text><text fill="#000000" font-family="sans-serif" font-size="14" lengthAdjust="spacing" textLength="142" x="1184" y="764.5801">get_exam_time_slots()</text><text fill="#000000" font-family="sans-serif" font-size="14" lengthAdjust="spacing" textLength="114" x="1184" y="782.1895">get_exam_dates()</text><text fill="#000000" font-family="sans-serif" font-size="14" lengthAdjust="spacing" textLength="113" x="1184" y="799.7988">get_exam_by_id()</text><text fill="#000000" font-family="sans-serif" font-size="14" lengthAdjust="spacing" textLength="60" x="1184" y="817.4082">__init__()</text></g><!--class LevelsService--><g id="elem_LevelsService"><rect codeLine="155" fill="#F1F1F1" height="171.2656" id="LevelsService" rx="2.5" ry="2.5" style="stroke:#181818;stroke-width:0.5;" width="120" x="1848" y="325"/><ellipse cx="1863" cy="341" fill="#ADD1B2" rx="11" ry="11" style="stroke:#181818;stroke-width:1.0;"/><path d="M1865.7656,336.875 Q1865.9219,336.6563 1866.1094,336.5469 Q1866.2969,336.4375 1866.5156,336.4375 Q1866.8906,336.4375 1867.125,336.7031 Q1867.3594,336.9531 1867.3594,337.5625 L1867.3594,339.0156 Q1867.3594,339.625 1867.125,339.8906 Q1866.8906,340.1563 1866.5156,340.1563 Q1866.1719,340.1563 1865.9688,339.9531 Q1865.7656,339.7656 1865.6563,339.25 Q1865.6094,338.8906 1865.4219,338.7031 Q1865.0938,338.3281 1864.4844,338.1094 Q1863.875,337.8906 1863.25,337.8906 Q1862.4844,337.8906 1861.8438,338.2188 Q1861.2188,338.5469 1860.7188,339.2969 Q1860.2344,340.0469 1860.2344,341.0781 L1860.2344,342.1719 Q1860.2344,343.4063 1861.125,344.2344 Q1862.0156,345.0469 1863.6094,345.0469 Q1864.5469,345.0469 1865.2031,344.7969 Q1865.5938,344.6406 1866.0156,344.2031 Q1866.2813,343.9375 1866.4219,343.8594 Q1866.5781,343.7813 1866.7813,343.7813 Q1867.1094,343.7813 1867.3594,344.0469 Q1867.625,344.2969 1867.625,344.6406 Q1867.625,344.9844 1867.2813,345.3906 Q1866.7813,345.9688 1865.9844,346.2969 Q1864.9063,346.75 1863.6094,346.75 Q1862.0938,346.75 1860.8906,346.125 Q1859.9063,345.625 1859.2188,344.5625 Q1858.5313,343.4844 1858.5313,342.2031 L1858.5313,341.0469 Q1858.5313,339.7188 1859.1406,338.5781 Q1859.7656,337.4219 1860.8594,336.8125 Q1861.9531,336.1875 1863.1875,336.1875 Q1863.9219,336.1875 1864.5625,336.3594 Q1865.2188,336.5156 1865.7656,336.875 Z " fill="#000000"/><text fill="#000000" font-family="sans-serif" font-size="14" lengthAdjust="spacing" textLength="88" x="1877" y="346.7285">LevelsService</text><line style="stroke:#181818;stroke-width:0.5;" x1="1849" x2="1967" y1="357" y2="357"/><text fill="#000000" font-family="sans-serif" font-size="14" lengthAdjust="spacing" textLength="29" x="1854" y="375.5332">repo</text><line style="stroke:#181818;stroke-width:0.5;" x1="1849" x2="1967" y1="382.6094" y2="382.6094"/><text fill="#000000" font-family="sans-serif" font-size="14" lengthAdjust="spacing" textLength="87" x="1854" y="401.1426">create_level()</text><text fill="#000000" font-family="sans-serif" font-size="14" lengthAdjust="spacing" textLength="67" x="1854" y="418.752">get_level()</text><text fill="#000000" font-family="sans-serif" font-size="14" lengthAdjust="spacing" textLength="96" x="1854" y="436.3613">get_all_levels()</text><text fill="#000000" font-family="sans-serif" font-size="14" lengthAdjust="spacing" textLength="91" x="1854" y="453.9707">update_level()</text><text fill="#000000" font-family="sans-serif" font-size="14" lengthAdjust="spacing" textLength="86" x="1854" y="471.5801">delete_level()</text><text fill="#000000" font-family="sans-serif" font-size="14" lengthAdjust="spacing" textLength="60" x="1854" y="489.1895">__init__()</text></g><!--class MajorsService--><g id="elem_MajorsService"><rect codeLine="165" fill="#F1F1F1" height="188.875" id="MajorsService" rx="2.5" ry="2.5" style="stroke:#181818;stroke-width:0.5;" width="168" x="1621" y="316"/><ellipse cx="1657.15" cy="332" fill="#ADD1B2" rx="11" ry="11" style="stroke:#181818;stroke-width:1.0;"/><path d="M1659.9156,327.875 Q1660.0719,327.6563 1660.2594,327.5469 Q1660.4469,327.4375 1660.6656,327.4375 Q1661.0406,327.4375 1661.275,327.7031 Q1661.5094,327.9531 1661.5094,328.5625 L1661.5094,330.0156 Q1661.5094,330.625 1661.275,330.8906 Q1661.0406,331.1563 1660.6656,331.1563 Q1660.3219,331.1563 1660.1188,330.9531 Q1659.9156,330.7656 1659.8063,330.25 Q1659.7594,329.8906 1659.5719,329.7031 Q1659.2438,329.3281 1658.6344,329.1094 Q1658.025,328.8906 1657.4,328.8906 Q1656.6344,328.8906 1655.9938,329.2188 Q1655.3688,329.5469 1654.8688,330.2969 Q1654.3844,331.0469 1654.3844,332.0781 L1654.3844,333.1719 Q1654.3844,334.4063 1655.275,335.2344 Q1656.1656,336.0469 1657.7594,336.0469 Q1658.6969,336.0469 1659.3531,335.7969 Q1659.7438,335.6406 1660.1656,335.2031 Q1660.4313,334.9375 1660.5719,334.8594 Q1660.7281,334.7813 1660.9313,334.7813 Q1661.2594,334.7813 1661.5094,335.0469 Q1661.775,335.2969 1661.775,335.6406 Q1661.775,335.9844 1661.4313,336.3906 Q1660.9313,336.9688 1660.1344,337.2969 Q1659.0563,337.75 1657.7594,337.75 Q1656.2438,337.75 1655.0406,337.125 Q1654.0563,336.625 1653.3688,335.5625 Q1652.6813,334.4844 1652.6813,333.2031 L1652.6813,332.0469 Q1652.6813,330.7188 1653.2906,329.5781 Q1653.9156,328.4219 1655.0094,327.8125 Q1656.1031,327.1875 1657.3375,327.1875 Q1658.0719,327.1875 1658.7125,327.3594 Q1659.3688,327.5156 1659.9156,327.875 Z " fill="#000000"/><text fill="#000000" font-family="sans-serif" font-size="14" lengthAdjust="spacing" textLength="89" x="1675.85" y="337.7285">MajorsService</text><line style="stroke:#181818;stroke-width:0.5;" x1="1622" x2="1788" y1="348" y2="348"/><text fill="#000000" font-family="sans-serif" font-size="14" lengthAdjust="spacing" textLength="79" x="1627" y="366.5332">majors_repo</text><text fill="#000000" font-family="sans-serif" font-size="14" lengthAdjust="spacing" textLength="89" x="1627" y="384.1426">colleges_repo</text><line style="stroke:#181818;stroke-width:0.5;" x1="1622" x2="1788" y1="391.2188" y2="391.2188"/><text fill="#000000" font-family="sans-serif" font-size="14" lengthAdjust="spacing" textLength="93" x="1627" y="409.752">create_major()</text><text fill="#000000" font-family="sans-serif" font-size="14" lengthAdjust="spacing" textLength="73" x="1627" y="427.3613">get_major()</text><text fill="#000000" font-family="sans-serif" font-size="14" lengthAdjust="spacing" textLength="156" x="1627" y="444.9707">get_majors_by_college()</text><text fill="#000000" font-family="sans-serif" font-size="14" lengthAdjust="spacing" textLength="97" x="1627" y="462.5801">update_major()</text><text fill="#000000" font-family="sans-serif" font-size="14" lengthAdjust="spacing" textLength="92" x="1627" y="480.1895">delete_major()</text><text fill="#000000" font-family="sans-serif" font-size="14" lengthAdjust="spacing" textLength="60" x="1627" y="497.7988">__init__()</text></g><!--class SemestersService--><g id="elem_SemestersService"><rect codeLine="176" fill="#F1F1F1" height="171.2656" id="SemestersService" rx="2.5" ry="2.5" style="stroke:#181818;stroke-width:0.5;" width="150" x="1413" y="325"/><ellipse cx="1429.8" cy="341" fill="#ADD1B2" rx="11" ry="11" style="stroke:#181818;stroke-width:1.0;"/><path d="M1432.5656,336.875 Q1432.7219,336.6563 1432.9094,336.5469 Q1433.0969,336.4375 1433.3156,336.4375 Q1433.6906,336.4375 1433.925,336.7031 Q1434.1594,336.9531 1434.1594,337.5625 L1434.1594,339.0156 Q1434.1594,339.625 1433.925,339.8906 Q1433.6906,340.1563 1433.3156,340.1563 Q1432.9719,340.1563 1432.7688,339.9531 Q1432.5656,339.7656 1432.4563,339.25 Q1432.4094,338.8906 1432.2219,338.7031 Q1431.8938,338.3281 1431.2844,338.1094 Q1430.675,337.8906 1430.05,337.8906 Q1429.2844,337.8906 1428.6438,338.2188 Q1428.0188,338.5469 1427.5188,339.2969 Q1427.0344,340.0469 1427.0344,341.0781 L1427.0344,342.1719 Q1427.0344,343.4063 1427.925,344.2344 Q1428.8156,345.0469 1430.4094,345.0469 Q1431.3469,345.0469 1432.0031,344.7969 Q1432.3938,344.6406 1432.8156,344.2031 Q1433.0813,343.9375 1433.2219,343.8594 Q1433.3781,343.7813 1433.5813,343.7813 Q1433.9094,343.7813 1434.1594,344.0469 Q1434.425,344.2969 1434.425,344.6406 Q1434.425,344.9844 1434.0813,345.3906 Q1433.5813,345.9688 1432.7844,346.2969 Q1431.7063,346.75 1430.4094,346.75 Q1428.8938,346.75 1427.6906,346.125 Q1426.7063,345.625 1426.0188,344.5625 Q1425.3313,343.4844 1425.3313,342.2031 L1425.3313,341.0469 Q1425.3313,339.7188 1425.9406,338.5781 Q1426.5656,337.4219 1427.6594,336.8125 Q1428.7531,336.1875 1429.9875,336.1875 Q1430.7219,336.1875 1431.3625,336.3594 Q1432.0188,336.5156 1432.5656,336.875 Z " fill="#000000"/><text fill="#000000" font-family="sans-serif" font-size="14" lengthAdjust="spacing" textLength="114" x="1444.2" y="346.7285">SemestersService</text><line style="stroke:#181818;stroke-width:0.5;" x1="1414" x2="1562" y1="357" y2="357"/><text fill="#000000" font-family="sans-serif" font-size="14" lengthAdjust="spacing" textLength="29" x="1419" y="375.5332">repo</text><line style="stroke:#181818;stroke-width:0.5;" x1="1414" x2="1562" y1="382.6094" y2="382.6094"/><text fill="#000000" font-family="sans-serif" font-size="14" lengthAdjust="spacing" textLength="116" x="1419" y="401.1426">create_semester()</text><text fill="#000000" font-family="sans-serif" font-size="14" lengthAdjust="spacing" textLength="125" x="1419" y="418.752">get_all_semesters()</text><text fill="#000000" font-family="sans-serif" font-size="14" lengthAdjust="spacing" textLength="138" x="1419" y="436.3613">get_semester_by_id()</text><text fill="#000000" font-family="sans-serif" font-size="14" lengthAdjust="spacing" textLength="120" x="1419" y="453.9707">update_semester()</text><text fill="#000000" font-family="sans-serif" font-size="14" lengthAdjust="spacing" textLength="115" x="1419" y="471.5801">delete_semester()</text><text fill="#000000" font-family="sans-serif" font-size="14" lengthAdjust="spacing" textLength="60" x="1419" y="489.1895">__init__()</text></g><!--class AcademicYearsRoutes--><g id="elem_AcademicYearsRoutes"><rect codeLine="195" fill="#F1F1F1" height="160.3594" id="AcademicYearsRoutes" rx="2.5" ry="2.5" style="stroke:#181818;stroke-width:0.5;" width="175" x="24.5" y="330.5"/><ellipse cx="39.5" cy="351.8516" fill="#ADD8E6" rx="11" ry="11" style="stroke:#181818;stroke-width:1.0;"/><path d="M38.3438,353.0078 L38.3438,355.1484 L38.9531,355.1484 Q39.5781,355.1484 39.8281,355.3828 Q40.0938,355.6172 40.0938,356.0078 Q40.0938,356.3828 39.8281,356.6172 Q39.5781,356.8516 38.9531,356.8516 L36.375,356.8516 Q35.7656,356.8516 35.5,356.6172 Q35.2344,356.3828 35.2344,355.9922 Q35.2344,355.6172 35.5,355.3828 Q35.7656,355.1484 36.375,355.1484 L36.6406,355.1484 L36.6406,348.4922 L36.375,348.4922 Q35.7656,348.4922 35.5,348.2578 Q35.2344,348.0234 35.2344,347.6328 Q35.2344,347.2578 35.5,347.0234 Q35.7656,346.7891 36.375,346.7891 L40.2344,346.7891 Q42.0313,346.7891 43.0156,347.6797 Q44.0156,348.5703 44.0156,349.8516 Q44.0156,350.6484 43.5469,351.3047 Q43.0781,351.9609 42.1406,352.4609 Q42.6875,352.9297 43.2969,353.6797 Q43.6875,354.1484 44.3281,355.1484 Q44.9844,355.1484 45.1875,355.2891 Q45.5625,355.5391 45.5625,356.0078 Q45.5625,356.3828 45.2969,356.6172 Q45.0469,356.8516 44.4375,356.8516 L43.4531,356.8516 Q41.3906,353.6484 40.0313,353.0078 L38.3438,353.0078 Z M38.3438,351.3047 L39.6719,351.3047 Q40.4063,351.3047 41,351.0859 Q41.7813,350.7891 42.0469,350.4609 Q42.3125,350.1172 42.3125,349.7891 Q42.3125,349.3203 41.7969,348.9141 Q41.2813,348.4922 40.2969,348.4922 L38.3438,348.4922 L38.3438,351.3047 Z " fill="#000000"/><text fill="#000000" font-family="sans-serif" font-size="12" font-style="italic" lengthAdjust="spacing" textLength="47" x="101.5" y="347.957">&#171;Route&#187;</text><text fill="#000000" font-family="sans-serif" font-size="14" lengthAdjust="spacing" textLength="143" x="53.5" y="365.127">AcademicYearsRoutes</text><line style="stroke:#181818;stroke-width:0.5;" x1="25.5" x2="198.5" y1="373.2031" y2="373.2031"/><ellipse cx="35.5" cy="409.1172" fill="none" rx="3" ry="3" style="stroke:#038048;stroke-width:1.0;"/><text fill="#000000" font-family="sans-serif" font-size="14" lengthAdjust="spacing" textLength="81" x="44.5" y="413.3457">POST /years</text><ellipse cx="35.5" cy="426.7266" fill="none" rx="3" ry="3" style="stroke:#038048;stroke-width:1.0;"/><text fill="#000000" font-family="sans-serif" font-size="14" lengthAdjust="spacing" textLength="72" x="44.5" y="430.9551">GET /years</text><ellipse cx="35.5" cy="444.3359" fill="none" rx="3" ry="3" style="stroke:#038048;stroke-width:1.0;"/><text fill="#000000" font-family="sans-serif" font-size="14" lengthAdjust="spacing" textLength="97" x="44.5" y="448.5645">GET /years/{id}</text><ellipse cx="35.5" cy="461.9453" fill="none" rx="3" ry="3" style="stroke:#038048;stroke-width:1.0;"/><text fill="#000000" font-family="sans-serif" font-size="14" lengthAdjust="spacing" textLength="95" x="44.5" y="466.1738">PUT /years/{id}</text><ellipse cx="35.5" cy="479.5547" fill="none" rx="3" ry="3" style="stroke:#038048;stroke-width:1.0;"/><text fill="#000000" font-family="sans-serif" font-size="14" lengthAdjust="spacing" textLength="122" x="44.5" y="483.7832">DELETE /years/{id}</text><line style="stroke:#181818;stroke-width:0.5;" x1="25.5" x2="80.5" y1="390.0078" y2="390.0078"/><text fill="#000000" font-family="sans-serif" font-size="14" lengthAdjust="spacing" textLength="63" x="80.5" y="395.2363">Endpoints</text><line style="stroke:#181818;stroke-width:0.5;" x1="143.5" x2="198.5" y1="390.0078" y2="390.0078"/></g><!--class CollegesRoutes--><g id="elem_CollegesRoutes"><rect codeLine="204" fill="#F1F1F1" height="160.3594" id="CollegesRoutes" rx="2.5" ry="2.5" style="stroke:#181818;stroke-width:0.5;" width="165" x="253.5" y="25"/><ellipse cx="283.35" cy="46.3516" fill="#ADD8E6" rx="11" ry="11" style="stroke:#181818;stroke-width:1.0;"/><path d="M282.1938,47.5078 L282.1938,49.6484 L282.8031,49.6484 Q283.4281,49.6484 283.6781,49.8828 Q283.9438,50.1172 283.9438,50.5078 Q283.9438,50.8828 283.6781,51.1172 Q283.4281,51.3516 282.8031,51.3516 L280.225,51.3516 Q279.6156,51.3516 279.35,51.1172 Q279.0844,50.8828 279.0844,50.4922 Q279.0844,50.1172 279.35,49.8828 Q279.6156,49.6484 280.225,49.6484 L280.4906,49.6484 L280.4906,42.9922 L280.225,42.9922 Q279.6156,42.9922 279.35,42.7578 Q279.0844,42.5234 279.0844,42.1328 Q279.0844,41.7578 279.35,41.5234 Q279.6156,41.2891 280.225,41.2891 L284.0844,41.2891 Q285.8813,41.2891 286.8656,42.1797 Q287.8656,43.0703 287.8656,44.3516 Q287.8656,45.1484 287.3969,45.8047 Q286.9281,46.4609 285.9906,46.9609 Q286.5375,47.4297 287.1469,48.1797 Q287.5375,48.6484 288.1781,49.6484 Q288.8344,49.6484 289.0375,49.7891 Q289.4125,50.0391 289.4125,50.5078 Q289.4125,50.8828 289.1469,51.1172 Q288.8969,51.3516 288.2875,51.3516 L287.3031,51.3516 Q285.2406,48.1484 283.8813,47.5078 L282.1938,47.5078 Z M282.1938,45.8047 L283.5219,45.8047 Q284.2563,45.8047 284.85,45.5859 Q285.6313,45.2891 285.8969,44.9609 Q286.1625,44.6172 286.1625,44.2891 Q286.1625,43.8203 285.6469,43.4141 Q285.1313,42.9922 284.1469,42.9922 L282.1938,42.9922 L282.1938,45.8047 Z " fill="#000000"/><text fill="#000000" font-family="sans-serif" font-size="12" font-style="italic" lengthAdjust="spacing" textLength="47" x="327.15" y="42.457">&#171;Route&#187;</text><text fill="#000000" font-family="sans-serif" font-size="14" lengthAdjust="spacing" textLength="100" x="300.65" y="59.627">CollegesRoutes</text><line style="stroke:#181818;stroke-width:0.5;" x1="254.5" x2="417.5" y1="67.7031" y2="67.7031"/><ellipse cx="264.5" cy="103.6172" fill="none" rx="3" ry="3" style="stroke:#038048;stroke-width:1.0;"/><text fill="#000000" font-family="sans-serif" font-size="14" lengthAdjust="spacing" textLength="98" x="273.5" y="107.8457">POST /colleges</text><ellipse cx="264.5" cy="121.2266" fill="none" rx="3" ry="3" style="stroke:#038048;stroke-width:1.0;"/><text fill="#000000" font-family="sans-serif" font-size="14" lengthAdjust="spacing" textLength="89" x="273.5" y="125.4551">GET /colleges</text><ellipse cx="264.5" cy="138.8359" fill="none" rx="3" ry="3" style="stroke:#038048;stroke-width:1.0;"/><text fill="#000000" font-family="sans-serif" font-size="14" lengthAdjust="spacing" textLength="114" x="273.5" y="143.0645">GET /colleges/{id}</text><ellipse cx="264.5" cy="156.4453" fill="none" rx="3" ry="3" style="stroke:#038048;stroke-width:1.0;"/><text fill="#000000" font-family="sans-serif" font-size="14" lengthAdjust="spacing" textLength="112" x="273.5" y="160.6738">PUT /colleges/{id}</text><ellipse cx="264.5" cy="174.0547" fill="none" rx="3" ry="3" style="stroke:#038048;stroke-width:1.0;"/><text fill="#000000" font-family="sans-serif" font-size="14" lengthAdjust="spacing" textLength="139" x="273.5" y="178.2832">DELETE /colleges/{id}</text><line style="stroke:#181818;stroke-width:0.5;" x1="254.5" x2="304.5" y1="84.5078" y2="84.5078"/><text fill="#000000" font-family="sans-serif" font-size="14" lengthAdjust="spacing" textLength="63" x="304.5" y="89.7363">Endpoints</text><line style="stroke:#181818;stroke-width:0.5;" x1="367.5" x2="417.5" y1="84.5078" y2="84.5078"/></g><!--class CoursesRoutes--><g id="elem_CoursesRoutes"><rect codeLine="213" fill="#F1F1F1" height="195.5781" id="CoursesRoutes" rx="2.5" ry="2.5" style="stroke:#181818;stroke-width:0.5;" width="163" x="461.5" y="7"/><ellipse cx="491.35" cy="28.3516" fill="#ADD8E6" rx="11" ry="11" style="stroke:#181818;stroke-width:1.0;"/><path d="M490.1938,29.5078 L490.1938,31.6484 L490.8031,31.6484 Q491.4281,31.6484 491.6781,31.8828 Q491.9438,32.1172 491.9438,32.5078 Q491.9438,32.8828 491.6781,33.1172 Q491.4281,33.3516 490.8031,33.3516 L488.225,33.3516 Q487.6156,33.3516 487.35,33.1172 Q487.0844,32.8828 487.0844,32.4922 Q487.0844,32.1172 487.35,31.8828 Q487.6156,31.6484 488.225,31.6484 L488.4906,31.6484 L488.4906,24.9922 L488.225,24.9922 Q487.6156,24.9922 487.35,24.7578 Q487.0844,24.5234 487.0844,24.1328 Q487.0844,23.7578 487.35,23.5234 Q487.6156,23.2891 488.225,23.2891 L492.0844,23.2891 Q493.8813,23.2891 494.8656,24.1797 Q495.8656,25.0703 495.8656,26.3516 Q495.8656,27.1484 495.3969,27.8047 Q494.9281,28.4609 493.9906,28.9609 Q494.5375,29.4297 495.1469,30.1797 Q495.5375,30.6484 496.1781,31.6484 Q496.8344,31.6484 497.0375,31.7891 Q497.4125,32.0391 497.4125,32.5078 Q497.4125,32.8828 497.1469,33.1172 Q496.8969,33.3516 496.2875,33.3516 L495.3031,33.3516 Q493.2406,30.1484 491.8813,29.5078 L490.1938,29.5078 Z M490.1938,27.8047 L491.5219,27.8047 Q492.2563,27.8047 492.85,27.5859 Q493.6313,27.2891 493.8969,26.9609 Q494.1625,26.6172 494.1625,26.2891 Q494.1625,25.8203 493.6469,25.4141 Q493.1313,24.9922 492.1469,24.9922 L490.1938,24.9922 L490.1938,27.8047 Z " fill="#000000"/><text fill="#000000" font-family="sans-serif" font-size="12" font-style="italic" lengthAdjust="spacing" textLength="47" x="534.15" y="24.457">&#171;Route&#187;</text><text fill="#000000" font-family="sans-serif" font-size="14" lengthAdjust="spacing" textLength="98" x="508.65" y="41.627">CoursesRoutes</text><line style="stroke:#181818;stroke-width:0.5;" x1="462.5" x2="623.5" y1="49.7031" y2="49.7031"/><ellipse cx="472.5" cy="85.6172" fill="none" rx="3" ry="3" style="stroke:#038048;stroke-width:1.0;"/><text fill="#000000" font-family="sans-serif" font-size="14" lengthAdjust="spacing" textLength="96" x="481.5" y="89.8457">POST /courses</text><ellipse cx="472.5" cy="103.2266" fill="none" rx="3" ry="3" style="stroke:#038048;stroke-width:1.0;"/><text fill="#000000" font-family="sans-serif" font-size="14" lengthAdjust="spacing" textLength="87" x="481.5" y="107.4551">GET /courses</text><ellipse cx="472.5" cy="120.8359" fill="none" rx="3" ry="3" style="stroke:#038048;stroke-width:1.0;"/><text fill="#000000" font-family="sans-serif" font-size="14" lengthAdjust="spacing" textLength="112" x="481.5" y="125.0645">GET /courses/{id}</text><ellipse cx="472.5" cy="138.4453" fill="none" rx="3" ry="3" style="stroke:#038048;stroke-width:1.0;"/><text fill="#000000" font-family="sans-serif" font-size="14" lengthAdjust="spacing" textLength="110" x="481.5" y="142.6738">PUT /courses/{id}</text><ellipse cx="472.5" cy="156.0547" fill="none" rx="3" ry="3" style="stroke:#038048;stroke-width:1.0;"/><text fill="#000000" font-family="sans-serif" font-size="14" lengthAdjust="spacing" textLength="137" x="481.5" y="160.2832">DELETE /courses/{id}</text><ellipse cx="472.5" cy="173.6641" fill="none" rx="3" ry="3" style="stroke:#038048;stroke-width:1.0;"/><text fill="#000000" font-family="sans-serif" font-size="14" lengthAdjust="spacing" textLength="134" x="481.5" y="177.8926">GET /courses/search</text><ellipse cx="472.5" cy="191.2734" fill="none" rx="3" ry="3" style="stroke:#038048;stroke-width:1.0;"/><text fill="#000000" font-family="sans-serif" font-size="14" lengthAdjust="spacing" textLength="118" x="481.5" y="195.502">GET /courses/filter</text><line style="stroke:#181818;stroke-width:0.5;" x1="462.5" x2="511.5" y1="66.5078" y2="66.5078"/><text fill="#000000" font-family="sans-serif" font-size="14" lengthAdjust="spacing" textLength="63" x="511.5" y="71.7363">Endpoints</text><line style="stroke:#181818;stroke-width:0.5;" x1="574.5" x2="623.5" y1="66.5078" y2="66.5078"/></g><!--class ExamDistributionRoutes--><g id="elem_ExamDistributionRoutes"><rect codeLine="224" fill="#F1F1F1" height="160.3594" id="ExamDistributionRoutes" rx="2.5" ry="2.5" style="stroke:#181818;stroke-width:0.5;" width="260" x="660" y="25"/><ellipse cx="710.75" cy="46.3516" fill="#ADD8E6" rx="11" ry="11" style="stroke:#181818;stroke-width:1.0;"/><path d="M709.5938,47.5078 L709.5938,49.6484 L710.2031,49.6484 Q710.8281,49.6484 711.0781,49.8828 Q711.3438,50.1172 711.3438,50.5078 Q711.3438,50.8828 711.0781,51.1172 Q710.8281,51.3516 710.2031,51.3516 L707.625,51.3516 Q707.0156,51.3516 706.75,51.1172 Q706.4844,50.8828 706.4844,50.4922 Q706.4844,50.1172 706.75,49.8828 Q707.0156,49.6484 707.625,49.6484 L707.8906,49.6484 L707.8906,42.9922 L707.625,42.9922 Q707.0156,42.9922 706.75,42.7578 Q706.4844,42.5234 706.4844,42.1328 Q706.4844,41.7578 706.75,41.5234 Q707.0156,41.2891 707.625,41.2891 L711.4844,41.2891 Q713.2813,41.2891 714.2656,42.1797 Q715.2656,43.0703 715.2656,44.3516 Q715.2656,45.1484 714.7969,45.8047 Q714.3281,46.4609 713.3906,46.9609 Q713.9375,47.4297 714.5469,48.1797 Q714.9375,48.6484 715.5781,49.6484 Q716.2344,49.6484 716.4375,49.7891 Q716.8125,50.0391 716.8125,50.5078 Q716.8125,50.8828 716.5469,51.1172 Q716.2969,51.3516 715.6875,51.3516 L714.7031,51.3516 Q712.6406,48.1484 711.2813,47.5078 L709.5938,47.5078 Z M709.5938,45.8047 L710.9219,45.8047 Q711.6563,45.8047 712.25,45.5859 Q713.0313,45.2891 713.2969,44.9609 Q713.5625,44.6172 713.5625,44.2891 Q713.5625,43.8203 713.0469,43.4141 Q712.5313,42.9922 711.5469,42.9922 L709.5938,42.9922 L709.5938,45.8047 Z " fill="#000000"/><text fill="#000000" font-family="sans-serif" font-size="12" font-style="italic" lengthAdjust="spacing" textLength="47" x="782.75" y="42.457">&#171;Route&#187;</text><text fill="#000000" font-family="sans-serif" font-size="14" lengthAdjust="spacing" textLength="150" x="731.25" y="59.627">ExamDistributionRoutes</text><line style="stroke:#181818;stroke-width:0.5;" x1="661" x2="919" y1="67.7031" y2="67.7031"/><ellipse cx="671" cy="103.6172" fill="none" rx="3" ry="3" style="stroke:#038048;stroke-width:1.0;"/><text fill="#000000" font-family="sans-serif" font-size="14" lengthAdjust="spacing" textLength="160" x="680" y="107.8457">POST /exam-distributions</text><ellipse cx="671" cy="121.2266" fill="none" rx="3" ry="3" style="stroke:#038048;stroke-width:1.0;"/><text fill="#000000" font-family="sans-serif" font-size="14" lengthAdjust="spacing" textLength="174" x="680" y="125.4551">PUT /exam-distributions/{id}</text><ellipse cx="671" cy="138.8359" fill="none" rx="3" ry="3" style="stroke:#038048;stroke-width:1.0;"/><text fill="#000000" font-family="sans-serif" font-size="14" lengthAdjust="spacing" textLength="176" x="680" y="143.0645">DELETE /exam-distributions</text><ellipse cx="671" cy="156.4453" fill="none" rx="3" ry="3" style="stroke:#038048;stroke-width:1.0;"/><text fill="#000000" font-family="sans-serif" font-size="14" lengthAdjust="spacing" textLength="193" x="680" y="160.6738">GET /exam-distributions/report</text><ellipse cx="671" cy="174.0547" fill="none" rx="3" ry="3" style="stroke:#038048;stroke-width:1.0;"/><text fill="#000000" font-family="sans-serif" font-size="14" lengthAdjust="spacing" textLength="234" x="680" y="178.2832">GET /exam-distributions/students/{id}</text><line style="stroke:#181818;stroke-width:0.5;" x1="661" x2="758.5" y1="84.5078" y2="84.5078"/><text fill="#000000" font-family="sans-serif" font-size="14" lengthAdjust="spacing" textLength="63" x="758.5" y="89.7363">Endpoints</text><line style="stroke:#181818;stroke-width:0.5;" x1="821.5" x2="919" y1="84.5078" y2="84.5078"/></g><!--class ExamsExcelRoutes--><g id="elem_ExamsExcelRoutes"><rect codeLine="233" fill="#F1F1F1" height="89.9219" id="ExamsExcelRoutes" rx="2.5" ry="2.5" style="stroke:#181818;stroke-width:0.5;" width="155" x="955.5" y="60"/><ellipse cx="972.3" cy="81.3516" fill="#ADD8E6" rx="11" ry="11" style="stroke:#181818;stroke-width:1.0;"/><path d="M971.1438,82.5078 L971.1438,84.6484 L971.7531,84.6484 Q972.3781,84.6484 972.6281,84.8828 Q972.8938,85.1172 972.8938,85.5078 Q972.8938,85.8828 972.6281,86.1172 Q972.3781,86.3516 971.7531,86.3516 L969.175,86.3516 Q968.5656,86.3516 968.3,86.1172 Q968.0344,85.8828 968.0344,85.4922 Q968.0344,85.1172 968.3,84.8828 Q968.5656,84.6484 969.175,84.6484 L969.4406,84.6484 L969.4406,77.9922 L969.175,77.9922 Q968.5656,77.9922 968.3,77.7578 Q968.0344,77.5234 968.0344,77.1328 Q968.0344,76.7578 968.3,76.5234 Q968.5656,76.2891 969.175,76.2891 L973.0344,76.2891 Q974.8313,76.2891 975.8156,77.1797 Q976.8156,78.0703 976.8156,79.3516 Q976.8156,80.1484 976.3469,80.8047 Q975.8781,81.4609 974.9406,81.9609 Q975.4875,82.4297 976.0969,83.1797 Q976.4875,83.6484 977.1281,84.6484 Q977.7844,84.6484 977.9875,84.7891 Q978.3625,85.0391 978.3625,85.5078 Q978.3625,85.8828 978.0969,86.1172 Q977.8469,86.3516 977.2375,86.3516 L976.2531,86.3516 Q974.1906,83.1484 972.8313,82.5078 L971.1438,82.5078 Z M971.1438,80.8047 L972.4719,80.8047 Q973.2063,80.8047 973.8,80.5859 Q974.5813,80.2891 974.8469,79.9609 Q975.1125,79.6172 975.1125,79.2891 Q975.1125,78.8203 974.5969,78.4141 Q974.0813,77.9922 973.0969,77.9922 L971.1438,77.9922 L971.1438,80.8047 Z " fill="#000000"/><text fill="#000000" font-family="sans-serif" font-size="12" font-style="italic" lengthAdjust="spacing" textLength="47" x="1022.7" y="77.457">&#171;Route&#187;</text><text fill="#000000" font-family="sans-serif" font-size="14" lengthAdjust="spacing" textLength="119" x="986.7" y="94.627">ExamsExcelRoutes</text><line style="stroke:#181818;stroke-width:0.5;" x1="956.5" x2="1109.5" y1="102.7031" y2="102.7031"/><ellipse cx="966.5" cy="138.6172" fill="none" rx="3" ry="3" style="stroke:#038048;stroke-width:1.0;"/><text fill="#000000" font-family="sans-serif" font-size="14" lengthAdjust="spacing" textLength="129" x="975.5" y="142.8457">POST /exams/import</text><line style="stroke:#181818;stroke-width:0.5;" x1="956.5" x2="1001.5" y1="119.5078" y2="119.5078"/><text fill="#000000" font-family="sans-serif" font-size="14" lengthAdjust="spacing" textLength="63" x="1001.5" y="124.7363">Endpoints</text><line style="stroke:#181818;stroke-width:0.5;" x1="1064.5" x2="1109.5" y1="119.5078" y2="119.5078"/></g><!--class ExamsRoutes--><g id="elem_ExamsRoutes"><rect codeLine="238" fill="#F1F1F1" height="195.5781" id="ExamsRoutes" rx="2.5" ry="2.5" style="stroke:#181818;stroke-width:0.5;" width="167" x="1172.5" y="312.5"/><ellipse cx="1209.55" cy="333.8516" fill="#ADD8E6" rx="11" ry="11" style="stroke:#181818;stroke-width:1.0;"/><path d="M1208.3938,335.0078 L1208.3938,337.1484 L1209.0031,337.1484 Q1209.6281,337.1484 1209.8781,337.3828 Q1210.1438,337.6172 1210.1438,338.0078 Q1210.1438,338.3828 1209.8781,338.6172 Q1209.6281,338.8516 1209.0031,338.8516 L1206.425,338.8516 Q1205.8156,338.8516 1205.55,338.6172 Q1205.2844,338.3828 1205.2844,337.9922 Q1205.2844,337.6172 1205.55,337.3828 Q1205.8156,337.1484 1206.425,337.1484 L1206.6906,337.1484 L1206.6906,330.4922 L1206.425,330.4922 Q1205.8156,330.4922 1205.55,330.2578 Q1205.2844,330.0234 1205.2844,329.6328 Q1205.2844,329.2578 1205.55,329.0234 Q1205.8156,328.7891 1206.425,328.7891 L1210.2844,328.7891 Q1212.0813,328.7891 1213.0656,329.6797 Q1214.0656,330.5703 1214.0656,331.8516 Q1214.0656,332.6484 1213.5969,333.3047 Q1213.1281,333.9609 1212.1906,334.4609 Q1212.7375,334.9297 1213.3469,335.6797 Q1213.7375,336.1484 1214.3781,337.1484 Q1215.0344,337.1484 1215.2375,337.2891 Q1215.6125,337.5391 1215.6125,338.0078 Q1215.6125,338.3828 1215.3469,338.6172 Q1215.0969,338.8516 1214.4875,338.8516 L1213.5031,338.8516 Q1211.4406,335.6484 1210.0813,335.0078 L1208.3938,335.0078 Z M1208.3938,333.3047 L1209.7219,333.3047 Q1210.4563,333.3047 1211.05,333.0859 Q1211.8313,332.7891 1212.0969,332.4609 Q1212.3625,332.1172 1212.3625,331.7891 Q1212.3625,331.3203 1211.8469,330.9141 Q1211.3313,330.4922 1210.3469,330.4922 L1208.3938,330.4922 L1208.3938,333.3047 Z " fill="#000000"/><text fill="#000000" font-family="sans-serif" font-size="12" font-style="italic" lengthAdjust="spacing" textLength="47" x="1247.95" y="329.957">&#171;Route&#187;</text><text fill="#000000" font-family="sans-serif" font-size="14" lengthAdjust="spacing" textLength="86" x="1228.45" y="347.127">ExamsRoutes</text><line style="stroke:#181818;stroke-width:0.5;" x1="1173.5" x2="1338.5" y1="355.2031" y2="355.2031"/><ellipse cx="1183.5" cy="391.1172" fill="none" rx="3" ry="3" style="stroke:#038048;stroke-width:1.0;"/><text fill="#000000" font-family="sans-serif" font-size="14" lengthAdjust="spacing" textLength="86" x="1192.5" y="395.3457">POST /exams</text><ellipse cx="1183.5" cy="408.7266" fill="none" rx="3" ry="3" style="stroke:#038048;stroke-width:1.0;"/><text fill="#000000" font-family="sans-serif" font-size="14" lengthAdjust="spacing" textLength="102" x="1192.5" y="412.9551">GET /exams/{id}</text><ellipse cx="1183.5" cy="426.3359" fill="none" rx="3" ry="3" style="stroke:#038048;stroke-width:1.0;"/><text fill="#000000" font-family="sans-serif" font-size="14" lengthAdjust="spacing" textLength="102" x="1192.5" y="430.5645">DELETE /exams</text><ellipse cx="1183.5" cy="443.9453" fill="none" rx="3" ry="3" style="stroke:#038048;stroke-width:1.0;"/><text fill="#000000" font-family="sans-serif" font-size="14" lengthAdjust="spacing" textLength="100" x="1192.5" y="448.1738">PUT /exams/{id}</text><ellipse cx="1183.5" cy="461.5547" fill="none" rx="3" ry="3" style="stroke:#038048;stroke-width:1.0;"/><text fill="#000000" font-family="sans-serif" font-size="14" lengthAdjust="spacing" textLength="108" x="1192.5" y="465.7832">GET /exams/filter</text><ellipse cx="1183.5" cy="479.1641" fill="none" rx="3" ry="3" style="stroke:#038048;stroke-width:1.0;"/><text fill="#000000" font-family="sans-serif" font-size="14" lengthAdjust="spacing" textLength="116" x="1192.5" y="483.3926">GET /exams/dates</text><ellipse cx="1183.5" cy="496.7734" fill="none" rx="3" ry="3" style="stroke:#038048;stroke-width:1.0;"/><text fill="#000000" font-family="sans-serif" font-size="14" lengthAdjust="spacing" textLength="141" x="1192.5" y="501.002">GET /exams/time-slots</text><line style="stroke:#181818;stroke-width:0.5;" x1="1173.5" x2="1224.5" y1="372.0078" y2="372.0078"/><text fill="#000000" font-family="sans-serif" font-size="14" lengthAdjust="spacing" textLength="63" x="1224.5" y="377.2363">Endpoints</text><line style="stroke:#181818;stroke-width:0.5;" x1="1287.5" x2="1338.5" y1="372.0078" y2="372.0078"/></g><!--class LevelsRoutes--><g id="elem_LevelsRoutes"><rect codeLine="249" fill="#F1F1F1" height="160.3594" id="LevelsRoutes" rx="2.5" ry="2.5" style="stroke:#181818;stroke-width:0.5;" width="149" x="1833.5" y="25"/><ellipse cx="1862.45" cy="46.3516" fill="#ADD8E6" rx="11" ry="11" style="stroke:#181818;stroke-width:1.0;"/><path d="M1861.2938,47.5078 L1861.2938,49.6484 L1861.9031,49.6484 Q1862.5281,49.6484 1862.7781,49.8828 Q1863.0438,50.1172 1863.0438,50.5078 Q1863.0438,50.8828 1862.7781,51.1172 Q1862.5281,51.3516 1861.9031,51.3516 L1859.325,51.3516 Q1858.7156,51.3516 1858.45,51.1172 Q1858.1844,50.8828 1858.1844,50.4922 Q1858.1844,50.1172 1858.45,49.8828 Q1858.7156,49.6484 1859.325,49.6484 L1859.5906,49.6484 L1859.5906,42.9922 L1859.325,42.9922 Q1858.7156,42.9922 1858.45,42.7578 Q1858.1844,42.5234 1858.1844,42.1328 Q1858.1844,41.7578 1858.45,41.5234 Q1858.7156,41.2891 1859.325,41.2891 L1863.1844,41.2891 Q1864.9813,41.2891 1865.9656,42.1797 Q1866.9656,43.0703 1866.9656,44.3516 Q1866.9656,45.1484 1866.4969,45.8047 Q1866.0281,46.4609 1865.0906,46.9609 Q1865.6375,47.4297 1866.2469,48.1797 Q1866.6375,48.6484 1867.2781,49.6484 Q1867.9344,49.6484 1868.1375,49.7891 Q1868.5125,50.0391 1868.5125,50.5078 Q1868.5125,50.8828 1868.2469,51.1172 Q1867.9969,51.3516 1867.3875,51.3516 L1866.4031,51.3516 Q1864.3406,48.1484 1862.9813,47.5078 L1861.2938,47.5078 Z M1861.2938,45.8047 L1862.6219,45.8047 Q1863.3563,45.8047 1863.95,45.5859 Q1864.7313,45.2891 1864.9969,44.9609 Q1865.2625,44.6172 1865.2625,44.2891 Q1865.2625,43.8203 1864.7469,43.4141 Q1864.2313,42.9922 1863.2469,42.9922 L1861.2938,42.9922 L1861.2938,45.8047 Z " fill="#000000"/><text fill="#000000" font-family="sans-serif" font-size="12" font-style="italic" lengthAdjust="spacing" textLength="47" x="1899.05" y="42.457">&#171;Route&#187;</text><text fill="#000000" font-family="sans-serif" font-size="14" lengthAdjust="spacing" textLength="86" x="1879.55" y="59.627">LevelsRoutes</text><line style="stroke:#181818;stroke-width:0.5;" x1="1834.5" x2="1981.5" y1="67.7031" y2="67.7031"/><ellipse cx="1844.5" cy="103.6172" fill="none" rx="3" ry="3" style="stroke:#038048;stroke-width:1.0;"/><text fill="#000000" font-family="sans-serif" font-size="14" lengthAdjust="spacing" textLength="82" x="1853.5" y="107.8457">POST /levels</text><ellipse cx="1844.5" cy="121.2266" fill="none" rx="3" ry="3" style="stroke:#038048;stroke-width:1.0;"/><text fill="#000000" font-family="sans-serif" font-size="14" lengthAdjust="spacing" textLength="98" x="1853.5" y="125.4551">GET /levels/{id}</text><ellipse cx="1844.5" cy="138.8359" fill="none" rx="3" ry="3" style="stroke:#038048;stroke-width:1.0;"/><text fill="#000000" font-family="sans-serif" font-size="14" lengthAdjust="spacing" textLength="73" x="1853.5" y="143.0645">GET /levels</text><ellipse cx="1844.5" cy="156.4453" fill="none" rx="3" ry="3" style="stroke:#038048;stroke-width:1.0;"/><text fill="#000000" font-family="sans-serif" font-size="14" lengthAdjust="spacing" textLength="96" x="1853.5" y="160.6738">PUT /levels/{id}</text><ellipse cx="1844.5" cy="174.0547" fill="none" rx="3" ry="3" style="stroke:#038048;stroke-width:1.0;"/><text fill="#000000" font-family="sans-serif" font-size="14" lengthAdjust="spacing" textLength="123" x="1853.5" y="178.2832">DELETE /levels/{id}</text><line style="stroke:#181818;stroke-width:0.5;" x1="1834.5" x2="1876.5" y1="84.5078" y2="84.5078"/><text fill="#000000" font-family="sans-serif" font-size="14" lengthAdjust="spacing" textLength="63" x="1876.5" y="89.7363">Endpoints</text><line style="stroke:#181818;stroke-width:0.5;" x1="1939.5" x2="1981.5" y1="84.5078" y2="84.5078"/></g><!--class MajorsRoutes--><g id="elem_MajorsRoutes"><rect codeLine="258" fill="#F1F1F1" height="177.9688" id="MajorsRoutes" rx="2.5" ry="2.5" style="stroke:#181818;stroke-width:0.5;" width="186" x="1612" y="16"/><ellipse cx="1657.25" cy="37.3516" fill="#ADD8E6" rx="11" ry="11" style="stroke:#181818;stroke-width:1.0;"/><path d="M1656.0938,38.5078 L1656.0938,40.6484 L1656.7031,40.6484 Q1657.3281,40.6484 1657.5781,40.8828 Q1657.8438,41.1172 1657.8438,41.5078 Q1657.8438,41.8828 1657.5781,42.1172 Q1657.3281,42.3516 1656.7031,42.3516 L1654.125,42.3516 Q1653.5156,42.3516 1653.25,42.1172 Q1652.9844,41.8828 1652.9844,41.4922 Q1652.9844,41.1172 1653.25,40.8828 Q1653.5156,40.6484 1654.125,40.6484 L1654.3906,40.6484 L1654.3906,33.9922 L1654.125,33.9922 Q1653.5156,33.9922 1653.25,33.7578 Q1652.9844,33.5234 1652.9844,33.1328 Q1652.9844,32.7578 1653.25,32.5234 Q1653.5156,32.2891 1654.125,32.2891 L1657.9844,32.2891 Q1659.7813,32.2891 1660.7656,33.1797 Q1661.7656,34.0703 1661.7656,35.3516 Q1661.7656,36.1484 1661.2969,36.8047 Q1660.8281,37.4609 1659.8906,37.9609 Q1660.4375,38.4297 1661.0469,39.1797 Q1661.4375,39.6484 1662.0781,40.6484 Q1662.7344,40.6484 1662.9375,40.7891 Q1663.3125,41.0391 1663.3125,41.5078 Q1663.3125,41.8828 1663.0469,42.1172 Q1662.7969,42.3516 1662.1875,42.3516 L1661.2031,42.3516 Q1659.1406,39.1484 1657.7813,38.5078 L1656.0938,38.5078 Z M1656.0938,36.8047 L1657.4219,36.8047 Q1658.1563,36.8047 1658.75,36.5859 Q1659.5313,36.2891 1659.7969,35.9609 Q1660.0625,35.6172 1660.0625,35.2891 Q1660.0625,34.8203 1659.5469,34.4141 Q1659.0313,33.9922 1658.0469,33.9922 L1656.0938,33.9922 L1656.0938,36.8047 Z " fill="#000000"/><text fill="#000000" font-family="sans-serif" font-size="12" font-style="italic" lengthAdjust="spacing" textLength="47" x="1697.75" y="33.457">&#171;Route&#187;</text><text fill="#000000" font-family="sans-serif" font-size="14" lengthAdjust="spacing" textLength="87" x="1677.75" y="50.627">MajorsRoutes</text><line style="stroke:#181818;stroke-width:0.5;" x1="1613" x2="1797" y1="58.7031" y2="58.7031"/><ellipse cx="1623" cy="94.6172" fill="none" rx="3" ry="3" style="stroke:#038048;stroke-width:1.0;"/><text fill="#000000" font-family="sans-serif" font-size="14" lengthAdjust="spacing" textLength="88" x="1632" y="98.8457">POST /majors</text><ellipse cx="1623" cy="112.2266" fill="none" rx="3" ry="3" style="stroke:#038048;stroke-width:1.0;"/><text fill="#000000" font-family="sans-serif" font-size="14" lengthAdjust="spacing" textLength="104" x="1632" y="116.4551">GET /majors/{id}</text><ellipse cx="1623" cy="129.8359" fill="none" rx="3" ry="3" style="stroke:#038048;stroke-width:1.0;"/><text fill="#000000" font-family="sans-serif" font-size="14" lengthAdjust="spacing" textLength="79" x="1632" y="134.0645">GET /majors</text><ellipse cx="1623" cy="147.4453" fill="none" rx="3" ry="3" style="stroke:#038048;stroke-width:1.0;"/><text fill="#000000" font-family="sans-serif" font-size="14" lengthAdjust="spacing" textLength="102" x="1632" y="151.6738">PUT /majors/{id}</text><ellipse cx="1623" cy="165.0547" fill="none" rx="3" ry="3" style="stroke:#038048;stroke-width:1.0;"/><text fill="#000000" font-family="sans-serif" font-size="14" lengthAdjust="spacing" textLength="129" x="1632" y="169.2832">DELETE /majors/{id}</text><ellipse cx="1623" cy="182.6641" fill="none" rx="3" ry="3" style="stroke:#038048;stroke-width:1.0;"/><text fill="#000000" font-family="sans-serif" font-size="14" lengthAdjust="spacing" textLength="160" x="1632" y="186.8926">GET /colleges/{id}/majors</text><line style="stroke:#181818;stroke-width:0.5;" x1="1613" x2="1673.5" y1="75.5078" y2="75.5078"/><text fill="#000000" font-family="sans-serif" font-size="14" lengthAdjust="spacing" textLength="63" x="1673.5" y="80.7363">Endpoints</text><line style="stroke:#181818;stroke-width:0.5;" x1="1736.5" x2="1797" y1="75.5078" y2="75.5078"/></g><!--class SemestersRoutes--><g id="elem_SemestersRoutes"><rect codeLine="268" fill="#F1F1F1" height="160.3594" id="SemestersRoutes" rx="2.5" ry="2.5" style="stroke:#181818;stroke-width:0.5;" width="178" x="1399" y="25"/><ellipse cx="1429.3" cy="46.3516" fill="#ADD8E6" rx="11" ry="11" style="stroke:#181818;stroke-width:1.0;"/><path d="M1428.1438,47.5078 L1428.1438,49.6484 L1428.7531,49.6484 Q1429.3781,49.6484 1429.6281,49.8828 Q1429.8938,50.1172 1429.8938,50.5078 Q1429.8938,50.8828 1429.6281,51.1172 Q1429.3781,51.3516 1428.7531,51.3516 L1426.175,51.3516 Q1425.5656,51.3516 1425.3,51.1172 Q1425.0344,50.8828 1425.0344,50.4922 Q1425.0344,50.1172 1425.3,49.8828 Q1425.5656,49.6484 1426.175,49.6484 L1426.4406,49.6484 L1426.4406,42.9922 L1426.175,42.9922 Q1425.5656,42.9922 1425.3,42.7578 Q1425.0344,42.5234 1425.0344,42.1328 Q1425.0344,41.7578 1425.3,41.5234 Q1425.5656,41.2891 1426.175,41.2891 L1430.0344,41.2891 Q1431.8313,41.2891 1432.8156,42.1797 Q1433.8156,43.0703 1433.8156,44.3516 Q1433.8156,45.1484 1433.3469,45.8047 Q1432.8781,46.4609 1431.9406,46.9609 Q1432.4875,47.4297 1433.0969,48.1797 Q1433.4875,48.6484 1434.1281,49.6484 Q1434.7844,49.6484 1434.9875,49.7891 Q1435.3625,50.0391 1435.3625,50.5078 Q1435.3625,50.8828 1435.0969,51.1172 Q1434.8469,51.3516 1434.2375,51.3516 L1433.2531,51.3516 Q1431.1906,48.1484 1429.8313,47.5078 L1428.1438,47.5078 Z M1428.1438,45.8047 L1429.4719,45.8047 Q1430.2063,45.8047 1430.8,45.5859 Q1431.5813,45.2891 1431.8469,44.9609 Q1432.1125,44.6172 1432.1125,44.2891 Q1432.1125,43.8203 1431.5969,43.4141 Q1431.0813,42.9922 1430.0969,42.9922 L1428.1438,42.9922 L1428.1438,45.8047 Z " fill="#000000"/><text fill="#000000" font-family="sans-serif" font-size="12" font-style="italic" lengthAdjust="spacing" textLength="47" x="1479.2" y="42.457">&#171;Route&#187;</text><text fill="#000000" font-family="sans-serif" font-size="14" lengthAdjust="spacing" textLength="112" x="1446.7" y="59.627">SemestersRoutes</text><line style="stroke:#181818;stroke-width:0.5;" x1="1400" x2="1576" y1="67.7031" y2="67.7031"/><ellipse cx="1410" cy="103.6172" fill="none" rx="3" ry="3" style="stroke:#038048;stroke-width:1.0;"/><text fill="#000000" font-family="sans-serif" font-size="14" lengthAdjust="spacing" textLength="111" x="1419" y="107.8457">POST /semesters</text><ellipse cx="1410" cy="121.2266" fill="none" rx="3" ry="3" style="stroke:#038048;stroke-width:1.0;"/><text fill="#000000" font-family="sans-serif" font-size="14" lengthAdjust="spacing" textLength="102" x="1419" y="125.4551">GET /semesters</text><ellipse cx="1410" cy="138.8359" fill="none" rx="3" ry="3" style="stroke:#038048;stroke-width:1.0;"/><text fill="#000000" font-family="sans-serif" font-size="14" lengthAdjust="spacing" textLength="127" x="1419" y="143.0645">GET /semesters/{id}</text><ellipse cx="1410" cy="156.4453" fill="none" rx="3" ry="3" style="stroke:#038048;stroke-width:1.0;"/><text fill="#000000" font-family="sans-serif" font-size="14" lengthAdjust="spacing" textLength="125" x="1419" y="160.6738">PUT /semesters/{id}</text><ellipse cx="1410" cy="174.0547" fill="none" rx="3" ry="3" style="stroke:#038048;stroke-width:1.0;"/><text fill="#000000" font-family="sans-serif" font-size="14" lengthAdjust="spacing" textLength="152" x="1419" y="178.2832">DELETE /semesters/{id}</text><line style="stroke:#181818;stroke-width:0.5;" x1="1400" x2="1456.5" y1="84.5078" y2="84.5078"/><text fill="#000000" font-family="sans-serif" font-size="14" lengthAdjust="spacing" textLength="63" x="1456.5" y="89.7363">Endpoints</text><line style="stroke:#181818;stroke-width:0.5;" x1="1519.5" x2="1576" y1="84.5078" y2="84.5078"/></g><g id="elem_GMN47"><path d="M6,75.5 L6,134.5547 A0,0 0 0 0 6,134.5547 L108,134.5547 L112,330.21 L116,134.5547 L218,134.5547 A0,0 0 0 0 218,134.5547 L218,85.5 L208,75.5 L6,75.5 A0,0 0 0 0 6,75.5 " fill="#FEFFDD" style="stroke:#181818;stroke-width:0.5;"/><path d="M208,75.5 L208,85.5 L218,85.5 L208,75.5 " fill="#FEFFDD" style="stroke:#181818;stroke-width:0.5;"/><text fill="#000000" font-family="sans-serif" font-size="13" lengthAdjust="spacing" textLength="48" x="12" y="93.9951">&#171;Route&#187;</text><text fill="#000000" font-family="sans-serif" font-size="13" lengthAdjust="spacing" textLength="187" x="12" y="110.3467">URL Prefix: /api/academic/years</text><text fill="#000000" font-family="sans-serif" font-size="13" lengthAdjust="spacing" textLength="191" x="12" y="126.6982">Uses Swagger for documentation</text></g><g id="elem_GMN50"><path d="M1148.5,75.5 L1148.5,134.5547 A0,0 0 0 0 1148.5,134.5547 L1252,134.5547 L1256,312.37 L1260,134.5547 L1363.5,134.5547 A0,0 0 0 0 1363.5,134.5547 L1363.5,85.5 L1353.5,75.5 L1148.5,75.5 A0,0 0 0 0 1148.5,75.5 " fill="#FEFFDD" style="stroke:#181818;stroke-width:0.5;"/><path d="M1353.5,75.5 L1353.5,85.5 L1363.5,85.5 L1353.5,75.5 " fill="#FEFFDD" style="stroke:#181818;stroke-width:0.5;"/><text fill="#000000" font-family="sans-serif" font-size="13" lengthAdjust="spacing" textLength="48" x="1154.5" y="93.9951">&#171;Route&#187;</text><text fill="#000000" font-family="sans-serif" font-size="13" lengthAdjust="spacing" textLength="194" x="1154.5" y="110.3467">URL Prefix: /api/academic/exams</text><text fill="#000000" font-family="sans-serif" font-size="13" lengthAdjust="spacing" textLength="173" x="1154.5" y="126.6982">Supports filtering by date/time</text></g><!--link AcademicYearsService to AcademicYearsRepository--><g id="link_AcademicYearsService_AcademicYearsRepository"><path codeLine="280" d="M112,806.83 C112,838.03 112,866.92 112,896.35 " fill="none" id="AcademicYearsService-to-AcademicYearsRepository" style="stroke:#181818;stroke-width:1.0;"/><polygon fill="#181818" points="112,902.35,116,893.35,112,897.35,108,893.35,112,902.35" style="stroke:#181818;stroke-width:1.0;"/></g><!--link CollegesService to CollegesRepository--><g id="link_CollegesService_CollegesRepository"><path codeLine="281" d="M336,496.21 C336,545.44 336,600.62 336,646.57 " fill="none" id="CollegesService-to-CollegesRepository" style="stroke:#181818;stroke-width:1.0;"/><polygon fill="#181818" points="336,652.57,340,643.57,336,647.57,332,643.57,336,652.57" style="stroke:#181818;stroke-width:1.0;"/></g><!--link CoursesService to CoursesRepository--><g id="link_CoursesService_CoursesRepository"><path codeLine="282" d="M543,513.8 C543,553.26 543,591.86 543,629.46 " fill="none" id="CoursesService-to-CoursesRepository" style="stroke:#181818;stroke-width:1.0;"/><polygon fill="#181818" points="543,635.46,547,626.46,543,630.46,539,626.46,543,635.46" style="stroke:#181818;stroke-width:1.0;"/></g><!--link ExamDistributionService to ExamDistributionRepository--><g id="link_ExamDistributionService_ExamDistributionRepository"><path codeLine="283" d="M790,513.8 C790,556.24 790,598.63 790,637.86 " fill="none" id="ExamDistributionService-to-ExamDistributionRepository" style="stroke:#181818;stroke-width:1.0;"/><polygon fill="#181818" points="790,643.86,794,634.86,790,638.86,786,634.86,790,643.86" style="stroke:#181818;stroke-width:1.0;"/></g><!--link ExamsExcelService to ExamsExcelRepository--><g id="link_ExamsExcelService_ExamsExcelRepository"><path codeLine="284" d="M1033,540.1 C1033,590.03 1033,637.65 1033,673.23 " fill="none" id="ExamsExcelService-to-ExamsExcelRepository" style="stroke:#181818;stroke-width:1.0;"/><polygon fill="#181818" points="1033,679.23,1037,670.23,1033,674.23,1029,670.23,1033,679.23" style="stroke:#181818;stroke-width:1.0;"/></g><!--link ExamsService to ExamsRepository--><g id="link_ExamsService_ExamsRepository"><path codeLine="285" d="M1256,824.1 C1256,844.34 1256,859.37 1256,878.95 " fill="none" id="ExamsService-to-ExamsRepository" style="stroke:#181818;stroke-width:1.0;"/><polygon fill="#181818" points="1256,884.95,1260,875.95,1256,879.95,1252,875.95,1256,884.95" style="stroke:#181818;stroke-width:1.0;"/></g><!--link LevelsService to LevelsRepository--><g id="link_LevelsService_LevelsRepository"><path codeLine="286" d="M1908,496.21 C1908,545.44 1908,600.62 1908,646.57 " fill="none" id="LevelsService-to-LevelsRepository" style="stroke:#181818;stroke-width:1.0;"/><polygon fill="#181818" points="1908,652.57,1912,643.57,1908,647.57,1904,643.57,1908,652.57" style="stroke:#181818;stroke-width:1.0;"/></g><!--link MajorsService to MajorsRepository--><g id="link_MajorsService_MajorsRepository"><path codeLine="287" d="M1705,505.32 C1705,552.83 1705,603.42 1705,646.57 " fill="none" id="MajorsService-to-MajorsRepository" style="stroke:#181818;stroke-width:1.0;"/><polygon fill="#181818" points="1705,652.57,1709,643.57,1705,647.57,1701,643.57,1705,652.57" style="stroke:#181818;stroke-width:1.0;"/></g><!--link SemestersService to SemestersRepository--><g id="link_SemestersService_SemestersRepository"><path codeLine="288" d="M1488,496.21 C1488,545.44 1488,600.62 1488,646.57 " fill="none" id="SemestersService-to-SemestersRepository" style="stroke:#181818;stroke-width:1.0;"/><polygon fill="#181818" points="1488,652.57,1492,643.57,1488,647.57,1484,643.57,1488,652.57" style="stroke:#181818;stroke-width:1.0;"/></g><!--link AcademicYearsRoutes to AcademicYearsService--><g id="link_AcademicYearsRoutes_AcademicYearsService"><path codeLine="291" d="M112,490.55 C112,534.91 112,584.26 112,629.48 " fill="none" id="AcademicYearsRoutes-to-AcademicYearsService" style="stroke:#181818;stroke-width:1.0;stroke-dasharray:7.0,7.0;"/><polygon fill="#181818" points="112,635.48,116,626.48,112,630.48,108,626.48,112,635.48" style="stroke:#181818;stroke-width:1.0;"/><text fill="#000000" font-family="sans-serif" font-size="13" lengthAdjust="spacing" textLength="43" x="113" y="584.4951">invokes</text></g><!--link CollegesRoutes to CollegesService--><g id="link_CollegesRoutes_CollegesService"><path codeLine="292" d="M336,185.34 C336,228.2 336,275.12 336,318.77 " fill="none" id="CollegesRoutes-to-CollegesService" style="stroke:#181818;stroke-width:1.0;stroke-dasharray:7.0,7.0;"/><polygon fill="#181818" points="336,324.77,340,315.77,336,319.77,332,315.77,336,324.77" style="stroke:#181818;stroke-width:1.0;"/><text fill="#000000" font-family="sans-serif" font-size="13" lengthAdjust="spacing" textLength="43" x="337" y="247.4951">invokes</text></g><!--link CoursesRoutes to CoursesService--><g id="link_CoursesRoutes_CoursesService"><path codeLine="293" d="M543,203.28 C543,236.48 543,267.7 543,301.28 " fill="none" id="CoursesRoutes-to-CoursesService" style="stroke:#181818;stroke-width:1.0;stroke-dasharray:7.0,7.0;"/><polygon fill="#181818" points="543,307.28,547,298.28,543,302.28,539,298.28,543,307.28" style="stroke:#181818;stroke-width:1.0;"/><text fill="#000000" font-family="sans-serif" font-size="13" lengthAdjust="spacing" textLength="43" x="544" y="247.4951">invokes</text></g><!--link ExamDistributionRoutes to ExamDistributionService--><g id="link_ExamDistributionRoutes_ExamDistributionService"><path codeLine="294" d="M790,185.34 C790,222.67 790,261.62 790,301.44 " fill="none" id="ExamDistributionRoutes-to-ExamDistributionService" style="stroke:#181818;stroke-width:1.0;stroke-dasharray:7.0,7.0;"/><polygon fill="#181818" points="790,307.44,794,298.44,790,302.44,786,298.44,790,307.44" style="stroke:#181818;stroke-width:1.0;"/><text fill="#000000" font-family="sans-serif" font-size="13" lengthAdjust="spacing" textLength="43" x="791" y="247.4951">invokes</text></g><!--link ExamsExcelRoutes to ExamsExcelService--><g id="link_ExamsExcelRoutes_ExamsExcelService"><path codeLine="295" d="M1033,150.13 C1033,184.57 1033,228.26 1033,274.94 " fill="none" id="ExamsExcelRoutes-to-ExamsExcelService" style="stroke:#181818;stroke-width:1.0;stroke-dasharray:7.0,7.0;"/><polygon fill="#181818" points="1033,280.94,1037,271.94,1033,275.94,1029,271.94,1033,280.94" style="stroke:#181818;stroke-width:1.0;"/><text fill="#000000" font-family="sans-serif" font-size="13" lengthAdjust="spacing" textLength="43" x="1034" y="247.4951">invokes</text></g><!--link ExamsRoutes to ExamsService--><g id="link_ExamsRoutes_ExamsService"><path codeLine="296" d="M1256,508.69 C1256,543.48 1256,576.78 1256,611.97 " fill="none" id="ExamsRoutes-to-ExamsService" style="stroke:#181818;stroke-width:1.0;stroke-dasharray:7.0,7.0;"/><polygon fill="#181818" points="1256,617.97,1260,608.97,1256,612.97,1252,608.97,1256,617.97" style="stroke:#181818;stroke-width:1.0;"/><text fill="#000000" font-family="sans-serif" font-size="13" lengthAdjust="spacing" textLength="43" x="1257" y="584.4951">invokes</text></g><!--link LevelsRoutes to LevelsService--><g id="link_LevelsRoutes_LevelsService"><path codeLine="297" d="M1908,185.34 C1908,228.2 1908,275.12 1908,318.77 " fill="none" id="LevelsRoutes-to-LevelsService" style="stroke:#181818;stroke-width:1.0;stroke-dasharray:7.0,7.0;"/><polygon fill="#181818" points="1908,324.77,1912,315.77,1908,319.77,1904,315.77,1908,324.77" style="stroke:#181818;stroke-width:1.0;"/><text fill="#000000" font-family="sans-serif" font-size="13" lengthAdjust="spacing" textLength="43" x="1909" y="247.4951">invokes</text></g><!--link MajorsRoutes to MajorsService--><g id="link_MajorsRoutes_MajorsService"><path codeLine="298" d="M1705,194.19 C1705,232.35 1705,271.04 1705,309.79 " fill="none" id="MajorsRoutes-to-MajorsService" style="stroke:#181818;stroke-width:1.0;stroke-dasharray:7.0,7.0;"/><polygon fill="#181818" points="1705,315.79,1709,306.79,1705,310.79,1701,306.79,1705,315.79" style="stroke:#181818;stroke-width:1.0;"/><text fill="#000000" font-family="sans-serif" font-size="13" lengthAdjust="spacing" textLength="43" x="1706" y="247.4951">invokes</text></g><!--link SemestersRoutes to SemestersService--><g id="link_SemestersRoutes_SemestersService"><path codeLine="299" d="M1488,185.34 C1488,228.2 1488,275.12 1488,318.77 " fill="none" id="SemestersRoutes-to-SemestersService" style="stroke:#181818;stroke-width:1.0;stroke-dasharray:7.0,7.0;"/><polygon fill="#181818" points="1488,324.77,1492,315.77,1488,319.77,1484,315.77,1488,324.77" style="stroke:#181818;stroke-width:1.0;"/><text fill="#000000" font-family="sans-serif" font-size="13" lengthAdjust="spacing" textLength="43" x="1489" y="247.4951">invokes</text></g><!--SRC=[lLXBJoD74BxFhsXn0PG0znMo56MjN8YoWkKGHL5hF6wRpix3cXcpe1M7R9Q5y3To8451czLA4VadC_ycrQznzMEC9HwM39vwVbNTNLKzIHfN5VacYSSiuycFB2whVJOhAbuNvIbv5n7u92MBQqPFWRcnAIbJLjCuJIMfGZJnJ4Udb8yrSJuREwfZbh859JgBeaH2-BP8KpPblTuJnKVEV8g0fAcL3S2MrHWMH0nZNbRBK0YsvrBgMD049PG9oq270z4gI4noP6mA4tcS6UQ4fpKhaSC5yE59dBtaLLtoqRpcHUv5049ycbC6ShGkQ5NFnoolRNIIEKPMRA3PFAtvB6MM28vR6xK25tJFBYq1NccyqqbHPd5DZnXiGx4jhAYguKd2KY-UupZb7UYAmizOcnlDqpTKBvXaUXRxbbT8kx1nB3eFngYJENkHiD0Y1o3h4MkUCLgbHMq1FM0Pgy1GBzXA2pYxqP2jTT6qq8vqpEWGCNM1wVlubw8VK2Quo6lmMMvf-pXg85ZSR3XDMY3OOySixKMG2Yxow3wB_4YQitfOJhis972zlhNQPzs0jChf0IkFUSAUlfOI_H57InqhodDUKuftbIcpGLHFMcDNX2ShMm-wvwszVJLtfK3SScn7z1or-9wQYyirpoS58bjAE8yw5I6F9Y7gL2vDYwhdTa9u9g3fKZufYmn-9jsHf5sj1mJC8y8UcsST4Ze3774Pw0kcpOn7HbS4oCgow0uUhSiuhr9X5QGaot2I8ZzcfKXMxP842fScYhgXYQIMnLkCPQKD53u7gDNupOTQRH5xNDQMh0vqVyF2U-BUG5J53aRo1ELw9KYgZGKXFLqFCyYqXGwWAQPqAUHk6WYYVhPHO7bsLssKfbk21b4FfBbkFxI_jH-Qw-OBV6yaeVb3Fdnfhvg_o0Pg-kqbqNdOD0RMmTP6SzEUAytRzbVGl2FDVs3tzx3vzhozRFw6xoSm3zppvfgq5-tL9fZQtjucFu7Vk_QY-Ioe7mKJB8W_e462Q9JlVzehqhvlFe71c_RYPs4BHUf7-Hd-NiB3ndunXzE6Gb9hlsPVpwJG6jdT1OMlKpuzgaVf718X6MGmq5k3qc4-dXLGhYfA9UKhykg7WzTaHquQclBTi9UmyuwFpupYOOZwShWtV3sq6Ds6NUikT0_6Qqu8HhYCvW4FCGnscuVXgulW8w2NXcoWVQG0T8- -GEwnB5DgcWbnL2j0mNgNnmT7BVh4bZKeuAXyRYZ0NXioc80DDU3S8wI77c_1qLNpKQAlTjHGuxfu9EjkbBqPz1BlxnX5rRl2eyiHm2UBcM5BpWmeGdqzUt28gkjZfuhYGRS4POY-eCa6vYmWwpljWo6hlewnAOe7sHAKa7r10xd7X5MqZC55I8jN1m-EgXiXiFlbHA-61JacGeTvvim4ed_3__UgM_xPNhKV_MRUzKlGxLFI7ReItRhhtHmsTl2olhKrw7if6hbNQ27hlxsCdAkiad9UBaPzrqGXtVz6B_AlKKR1VLaMMVU8JWe9sFEva73ViKJsl2n4t1T1aJUV2gd0AwnbIwHsAngddCNH_EtjGVWDomkonlFZuWti-CYUFgIEkswsEEhsMjfQFYmSxfPIgsyzNNNSQ3f5UqKz5LSw98ZhhvIqLnUBuhedHUrLng9EFP7Ite9Z1MUkFvTdzRQvMyoyDp3n_WlpzQsSxRi3d1TGbkfYHee92Qmzr8xTNVbpC83VX_jxv5N99lpa1Tc9PtmdrYhTH7i8IqWEtiRJAIi9NF_9k4Zc6RH_UVUFM3ucmcLaEKRPNjcXwRG7yvbe-fM-RlDyIaQdHBHGsJ2HH_dv7m00]--></g></svg>