<?xml version="1.0" encoding="us-ascii" standalone="no"?><svg xmlns="http://www.w3.org/2000/svg" xmlns:xlink="http://www.w3.org/1999/xlink" contentStyleType="text/css" height="859px" preserveAspectRatio="none" style="width:634px;height:859px;background:#FFFFFF;" version="1.1" viewBox="0 0 634 859" width="634px" zoomAndPan="magnify"><defs/><g><!--class ModelConfigRepository--><g id="elem_ModelConfigRepository"><rect codeLine="2" fill="#F1F1F1" height="118.4375" id="ModelConfigRepository" rx="2.5" ry="2.5" style="stroke:#181818;stroke-width:0.5;" width="261" x="69" y="734"/><ellipse cx="121.75" cy="750" fill="#ADD1B2" rx="11" ry="11" style="stroke:#181818;stroke-width:1.0;"/><path d="M124.5156,745.875 Q124.6719,745.6563 124.8594,745.5469 Q125.0469,745.4375 125.2656,745.4375 Q125.6406,745.4375 125.875,745.7031 Q126.1094,745.9531 126.1094,746.5625 L126.1094,748.0156 Q126.1094,748.625 125.875,748.8906 Q125.6406,749.1563 125.2656,749.1563 Q124.9219,749.1563 124.7188,748.9531 Q124.5156,748.7656 124.4063,748.25 Q124.3594,747.8906 124.1719,747.7031 Q123.8438,747.3281 123.2344,747.1094 Q122.625,746.8906 122,746.8906 Q121.2344,746.8906 120.5938,747.2188 Q119.9688,747.5469 119.4688,748.2969 Q118.9844,749.0469 118.9844,750.0781 L118.9844,751.1719 Q118.9844,752.4063 119.875,753.2344 Q120.7656,754.0469 122.3594,754.0469 Q123.2969,754.0469 123.9531,753.7969 Q124.3438,753.6406 124.7656,753.2031 Q125.0313,752.9375 125.1719,752.8594 Q125.3281,752.7813 125.5313,752.7813 Q125.8594,752.7813 126.1094,753.0469 Q126.375,753.2969 126.375,753.6406 Q126.375,753.9844 126.0313,754.3906 Q125.5313,754.9688 124.7344,755.2969 Q123.6563,755.75 122.3594,755.75 Q120.8438,755.75 119.6406,755.125 Q118.6563,754.625 117.9688,753.5625 Q117.2813,752.4844 117.2813,751.2031 L117.2813,750.0469 Q117.2813,748.7188 117.8906,747.5781 Q118.5156,746.4219 119.6094,745.8125 Q120.7031,745.1875 121.9375,745.1875 Q122.6719,745.1875 123.3125,745.3594 Q123.9688,745.5156 124.5156,745.875 Z " fill="#000000"/><text fill="#000000" font-family="sans-serif" font-size="14" lengthAdjust="spacing" textLength="147" x="142.25" y="755.7285">ModelConfigRepository</text><line style="stroke:#181818;stroke-width:0.5;" x1="70" x2="329" y1="766" y2="766"/><line style="stroke:#181818;stroke-width:0.5;" x1="70" x2="329" y1="774" y2="774"/><ellipse cx="80" cy="788.3047" fill="#84BE84" rx="3" ry="3" style="stroke:#038048;stroke-width:1.0;"/><text fill="#000000" font-family="sans-serif" font-size="14" lengthAdjust="spacing" textLength="125" x="89" y="792.5332">get_config(): Config</text><ellipse cx="80" cy="805.9141" fill="#84BE84" rx="3" ry="3" style="stroke:#038048;stroke-width:1.0;"/><text fill="#000000" font-family="sans-serif" font-size="14" lengthAdjust="spacing" textLength="235" x="89" y="810.1426">update_config(id: int, data: dict): bool</text><ellipse cx="80" cy="823.5234" fill="#84BE84" rx="3" ry="3" style="stroke:#038048;stroke-width:1.0;"/><text fill="#000000" font-family="sans-serif" font-size="14" lengthAdjust="spacing" textLength="148" x="89" y="827.752">reset_to_default(): bool</text><ellipse cx="80" cy="841.1328" fill="#84BE84" rx="3" ry="3" style="stroke:#038048;stroke-width:1.0;"/><text fill="#000000" font-family="sans-serif" font-size="14" lengthAdjust="spacing" textLength="176" x="89" y="845.3613">get_default_config(): Config</text></g><!--class ModelConfigService--><g id="elem_ModelConfigService"><rect codeLine="9" fill="#F1F1F1" height="136.0469" id="ModelConfigService" rx="2.5" ry="2.5" style="stroke:#181818;stroke-width:0.5;" width="261" x="69" y="504"/><ellipse cx="132.25" cy="520" fill="#ADD1B2" rx="11" ry="11" style="stroke:#181818;stroke-width:1.0;"/><path d="M135.0156,515.875 Q135.1719,515.6563 135.3594,515.5469 Q135.5469,515.4375 135.7656,515.4375 Q136.1406,515.4375 136.375,515.7031 Q136.6094,515.9531 136.6094,516.5625 L136.6094,518.0156 Q136.6094,518.625 136.375,518.8906 Q136.1406,519.1563 135.7656,519.1563 Q135.4219,519.1563 135.2188,518.9531 Q135.0156,518.7656 134.9063,518.25 Q134.8594,517.8906 134.6719,517.7031 Q134.3438,517.3281 133.7344,517.1094 Q133.125,516.8906 132.5,516.8906 Q131.7344,516.8906 131.0938,517.2188 Q130.4688,517.5469 129.9688,518.2969 Q129.4844,519.0469 129.4844,520.0781 L129.4844,521.1719 Q129.4844,522.4063 130.375,523.2344 Q131.2656,524.0469 132.8594,524.0469 Q133.7969,524.0469 134.4531,523.7969 Q134.8438,523.6406 135.2656,523.2031 Q135.5313,522.9375 135.6719,522.8594 Q135.8281,522.7813 136.0313,522.7813 Q136.3594,522.7813 136.6094,523.0469 Q136.875,523.2969 136.875,523.6406 Q136.875,523.9844 136.5313,524.3906 Q136.0313,524.9688 135.2344,525.2969 Q134.1563,525.75 132.8594,525.75 Q131.3438,525.75 130.1406,525.125 Q129.1563,524.625 128.4688,523.5625 Q127.7813,522.4844 127.7813,521.2031 L127.7813,520.0469 Q127.7813,518.7188 128.3906,517.5781 Q129.0156,516.4219 130.1094,515.8125 Q131.2031,515.1875 132.4375,515.1875 Q133.1719,515.1875 133.8125,515.3594 Q134.4688,515.5156 135.0156,515.875 Z " fill="#000000"/><text fill="#000000" font-family="sans-serif" font-size="14" lengthAdjust="spacing" textLength="126" x="152.75" y="525.7285">ModelConfigService</text><line style="stroke:#181818;stroke-width:0.5;" x1="70" x2="329" y1="536" y2="536"/><line style="stroke:#181818;stroke-width:0.5;" x1="70" x2="329" y1="544" y2="544"/><ellipse cx="80" cy="558.3047" fill="#84BE84" rx="3" ry="3" style="stroke:#038048;stroke-width:1.0;"/><text fill="#000000" font-family="sans-serif" font-size="14" lengthAdjust="spacing" textLength="159" x="89" y="562.5332">get_current_config(): dict</text><ellipse cx="80" cy="575.9141" fill="#84BE84" rx="3" ry="3" style="stroke:#038048;stroke-width:1.0;"/><text fill="#000000" font-family="sans-serif" font-size="14" lengthAdjust="spacing" textLength="235" x="89" y="580.1426">update_config(id: int, data: dict): bool</text><ellipse cx="80" cy="593.5234" fill="#84BE84" rx="3" ry="3" style="stroke:#038048;stroke-width:1.0;"/><text fill="#000000" font-family="sans-serif" font-size="14" lengthAdjust="spacing" textLength="148" x="89" y="597.752">reset_to_default(): bool</text><ellipse cx="80" cy="611.1328" fill="#84BE84" rx="3" ry="3" style="stroke:#038048;stroke-width:1.0;"/><text fill="#000000" font-family="sans-serif" font-size="14" lengthAdjust="spacing" textLength="157" x="89" y="615.3613">get_default_config(): dict</text><rect fill="#F24D5C" height="6" style="stroke:#C82930;stroke-width:1.0;" width="6" x="77" y="625.7422"/><text fill="#000000" font-family="sans-serif" font-size="14" lengthAdjust="spacing" textLength="195" x="89" y="632.9707">_validate_mediapipe_params()</text></g><!--class ModelConfigRoutes--><g id="elem_ModelConfigRoutes"><rect codeLine="17" fill="#F1F1F1" height="234.7969" id="ModelConfigRoutes" rx="2.5" ry="2.5" style="stroke:#181818;stroke-width:0.5;" width="385" x="7" y="191"/><ellipse cx="133.25" cy="212.3516" fill="#FF8256" rx="11" ry="11" style="stroke:#181818;stroke-width:1.0;"/><path d="M132.0938,213.5078 L132.0938,215.6484 L132.7031,215.6484 Q133.3281,215.6484 133.5781,215.8828 Q133.8438,216.1172 133.8438,216.5078 Q133.8438,216.8828 133.5781,217.1172 Q133.3281,217.3516 132.7031,217.3516 L130.125,217.3516 Q129.5156,217.3516 129.25,217.1172 Q128.9844,216.8828 128.9844,216.4922 Q128.9844,216.1172 129.25,215.8828 Q129.5156,215.6484 130.125,215.6484 L130.3906,215.6484 L130.3906,208.9922 L130.125,208.9922 Q129.5156,208.9922 129.25,208.7578 Q128.9844,208.5234 128.9844,208.1328 Q128.9844,207.7578 129.25,207.5234 Q129.5156,207.2891 130.125,207.2891 L133.9844,207.2891 Q135.7813,207.2891 136.7656,208.1797 Q137.7656,209.0703 137.7656,210.3516 Q137.7656,211.1484 137.2969,211.8047 Q136.8281,212.4609 135.8906,212.9609 Q136.4375,213.4297 137.0469,214.1797 Q137.4375,214.6484 138.0781,215.6484 Q138.7344,215.6484 138.9375,215.7891 Q139.3125,216.0391 139.3125,216.5078 Q139.3125,216.8828 139.0469,217.1172 Q138.7969,217.3516 138.1875,217.3516 L137.2031,217.3516 Q135.1406,214.1484 133.7813,213.5078 L132.0938,213.5078 Z M132.0938,211.8047 L133.4219,211.8047 Q134.1563,211.8047 134.75,211.5859 Q135.5313,211.2891 135.7969,210.9609 Q136.0625,210.6172 136.0625,210.2891 Q136.0625,209.8203 135.5469,209.4141 Q135.0313,208.9922 134.0469,208.9922 L132.0938,208.9922 L132.0938,211.8047 Z " fill="#000000"/><text fill="#000000" font-family="sans-serif" font-size="12" font-style="italic" lengthAdjust="spacing" textLength="86" x="172.75" y="208.457">&#171;Flask Routes&#187;</text><text fill="#000000" font-family="sans-serif" font-size="14" lengthAdjust="spacing" textLength="124" x="153.75" y="225.627">ModelConfigRoutes</text><line style="stroke:#181818;stroke-width:0.5;" x1="8" x2="391" y1="233.7031" y2="233.7031"/><ellipse cx="18" cy="269.6172" fill="#84BE84" rx="3" ry="3" style="stroke:#038048;stroke-width:1.0;"/><text fill="#000000" font-family="sans-serif" font-size="14" lengthAdjust="spacing" textLength="229" x="27" y="273.8457">GET /api/model-config : get_config()</text><ellipse cx="18" cy="287.2266" fill="#84BE84" rx="3" ry="3" style="stroke:#038048;stroke-width:1.0;"/><text fill="#000000" font-family="sans-serif" font-size="14" lengthAdjust="spacing" textLength="282" x="27" y="291.4551">PUT /api/model-config/&lt;id&gt; : update_config()</text><ellipse cx="18" cy="304.8359" fill="#84BE84" rx="3" ry="3" style="stroke:#038048;stroke-width:1.0;"/><text fill="#000000" font-family="sans-serif" font-size="14" lengthAdjust="spacing" textLength="359" x="27" y="309.0645">POST /api/model-config/reset-default : reset_to_default()</text><ellipse cx="18" cy="322.4453" fill="#84BE84" rx="3" ry="3" style="stroke:#038048;stroke-width:1.0;"/><text fill="#000000" font-family="sans-serif" font-size="14" lengthAdjust="spacing" textLength="327" x="27" y="326.6738">GET /api/model-config/default : get_default_config()</text><text fill="#000000" font-family="sans-serif" font-size="14" lengthAdjust="spacing" textLength="4" x="27" y="344.2832">&#160;</text><line style="stroke:#181818;stroke-width:0.5;" x1="8" x2="158.5" y1="250.5078" y2="250.5078"/><text fill="#000000" font-family="sans-serif" font-size="14" lengthAdjust="spacing" textLength="82" x="158.5" y="255.7363">All Endpoints</text><line style="stroke:#181818;stroke-width:0.5;" x1="240.5" x2="391" y1="250.5078" y2="250.5078"/><ellipse cx="18" cy="379.2734" fill="none" rx="3" ry="3" style="stroke:#038048;stroke-width:1.0;"/><text fill="#000000" font-family="sans-serif" font-size="14" lengthAdjust="spacing" textLength="119" x="27" y="383.502">FaceMesh Options</text><ellipse cx="18" cy="396.8828" fill="none" rx="3" ry="3" style="stroke:#038048;stroke-width:1.0;"/><text fill="#000000" font-family="sans-serif" font-size="14" lengthAdjust="spacing" textLength="101" x="27" y="401.1113">Pose Estimation</text><ellipse cx="18" cy="414.4922" fill="none" rx="3" ry="3" style="stroke:#038048;stroke-width:1.0;"/><text fill="#000000" font-family="sans-serif" font-size="14" lengthAdjust="spacing" textLength="104" x="27" y="418.7207">Alert Thresholds</text><line style="stroke:#181818;stroke-width:0.5;" x1="8" x2="131" y1="360.1641" y2="360.1641"/><text fill="#000000" font-family="sans-serif" font-size="14" lengthAdjust="spacing" textLength="137" x="131" y="365.3926">MediaPipe Integration</text><line style="stroke:#181818;stroke-width:0.5;" x1="268" x2="391" y1="360.1641" y2="360.1641"/></g><g id="elem_GMN7"><path d="M98.5,6 L98.5,130.4609 A0,0 0 0 0 98.5,130.4609 L195.5,130.4609 L199.5,190.91 L203.5,130.4609 L300.5,130.4609 A0,0 0 0 0 300.5,130.4609 L300.5,16 L290.5,6 L98.5,6 A0,0 0 0 0 98.5,6 " fill="#FEFFDD" style="stroke:#181818;stroke-width:0.5;"/><path d="M290.5,6 L290.5,16 L300.5,16 L290.5,6 " fill="#FEFFDD" style="stroke:#181818;stroke-width:0.5;"/><text fill="#000000" font-family="sans-serif" font-size="13" lengthAdjust="spacing" textLength="109" x="104.5" y="24.4951">&#171;Flask REST API&#187;</text><text fill="#000000" font-family="sans-serif" font-size="13" lengthAdjust="spacing" textLength="181" x="104.5" y="40.8467">Full configuration management:</text><text fill="#000000" font-family="sans-serif" font-size="13" lengthAdjust="spacing" textLength="170" x="104.5" y="57.1982">- GET: Retrieve current config</text><text fill="#000000" font-family="sans-serif" font-size="13" lengthAdjust="spacing" textLength="151" x="104.5" y="73.5498">- PUT: Update parameters</text><text fill="#000000" font-family="sans-serif" font-size="13" lengthAdjust="spacing" textLength="149" x="104.5" y="89.9014">- POST: Reset to defaults</text><text fill="#000000" font-family="sans-serif" font-size="13" lengthAdjust="spacing" textLength="145" x="104.5" y="106.2529">- GET: Get default values</text><text fill="#000000" font-family="sans-serif" font-size="13" lengthAdjust="spacing" textLength="168" x="104.5" y="122.6045">Integrates with MediaPipe JS</text></g><g id="elem_GMN10"><path d="M365.5,526 L365.5,568 L330.02,572 L365.5,576 L365.5,617.7578 A0,0 0 0 0 365.5,617.7578 L627.5,617.7578 A0,0 0 0 0 627.5,617.7578 L627.5,536 L617.5,526 L365.5,526 A0,0 0 0 0 365.5,526 " fill="#FEFFDD" style="stroke:#181818;stroke-width:0.5;"/><path d="M617.5,526 L617.5,536 L627.5,536 L617.5,526 " fill="#FEFFDD" style="stroke:#181818;stroke-width:0.5;"/><text fill="#000000" font-family="sans-serif" font-size="13" lengthAdjust="spacing" textLength="144" x="371.5" y="544.4951">MediaPipe Configuration:</text><text fill="#000000" font-family="sans-serif" font-size="13" lengthAdjust="spacing" textLength="241" x="371.5" y="560.8467">- FaceMesh: maxFaces, refineLandmarks</text><text fill="#000000" font-family="sans-serif" font-size="13" lengthAdjust="spacing" textLength="177" x="371.5" y="577.1982">- Pose: complexity, smoothing</text><text fill="#000000" font-family="sans-serif" font-size="13" lengthAdjust="spacing" textLength="171" x="371.5" y="593.5498">- Alerts: thresholds, durations</text><text fill="#000000" font-family="sans-serif" font-size="13" lengthAdjust="spacing" textLength="161" x="371.5" y="609.9014">Validation for all parameters</text></g><!--link ModelConfigService to ModelConfigRepository--><g id="link_ModelConfigService_ModelConfigRepository"><path codeLine="30" d="M199.5,640.2 C199.5,670.12 199.5,699.03 199.5,727.82 " fill="none" id="ModelConfigService-to-ModelConfigRepository" style="stroke:#181818;stroke-width:1.0;"/><polygon fill="#181818" points="199.5,733.82,203.5,724.82,199.5,728.82,195.5,724.82,199.5,733.82" style="stroke:#181818;stroke-width:1.0;"/><text fill="#000000" font-family="sans-serif" font-size="13" lengthAdjust="spacing" textLength="46" x="200.5" y="684.4951">persists</text><text fill="#000000" font-family="sans-serif" font-size="13" lengthAdjust="spacing" textLength="46" x="200.5" y="700.8467">settings</text></g><!--link ModelConfigRoutes to ModelConfigService--><g id="link_ModelConfigRoutes_ModelConfigService"><path codeLine="31" d="M199.5,426.1 C199.5,452.66 199.5,474.01 199.5,497.69 " fill="none" id="ModelConfigRoutes-to-ModelConfigService" style="stroke:#181818;stroke-width:1.0;stroke-dasharray:7.0,7.0;"/><polygon fill="#181818" points="199.5,503.69,203.5,494.69,199.5,498.69,195.5,494.69,199.5,503.69" style="stroke:#181818;stroke-width:1.0;"/><text fill="#000000" font-family="sans-serif" font-size="13" lengthAdjust="spacing" textLength="43" x="200.5" y="470.4951">invokes</text></g><!--SRC=[lLDBQzj04BxhLmpEnQPs38MM8ep013iarCJOIKy5iPN6qc9fL-oEt8JI_zxPrJfMOkVQetPUtqjP9Qo5bSwnkj5g9uiDDjfAqkO5_aG0dw10IZDV6evYw9fyeMroGNYioJm6gMWC_2XYo6L6tFvBwyet6xIyXtIQuqwq5GtxHNSYl9-V-Xj5sNkGMpG7cM4VOMiCglwuG_1VS8P34qWFefB-Lesv58riC6s44RKTZauq1dsnTKje1p2RmN0plbekltt-ydK4IsxSGrU49F4qqtHULR1GUQCPlarJZ-XsyGXJlZIjtT991mhYDwRvnlNJXSRfJEO9TxzLA0myR2zDU7qcGGGUFTVhOrpJqzWb9NdGyrmvyTOi7jmfmi88abe5lakHuGfj2G-DUxKTL6qH5fPaxLlzsxn2G_1OChvILxbr-by8q6IIV13-60OD6YijsP-AEP9KXHr4P-R1zNLoAPeyBzL1xzdUA5AQ44Wte7Tmje7npcR1yWMBFb_V9Ga_Bbisl1EdxKI0MYXHOCr1ZttYMEOODaX6uW4X_0DXnZUmxJ4yUNl1Hn69INKbDjWDCpU61i4DUzfxouMZOvpirYCzMiB4VqiguMJM_JP2bOEZ6WWRMPJqZdAGXpUT9c_w73jYHvzZflpiFkoOexQJ2hyBbTV2x0C9jZvcmdLJuREabp7OMcigsInVzp6mCT1h4FZ73vVSXX_T7-kqtMa3WXNloVJAvny0]--></g></svg>